<?xml version="1.0" encoding="utf-8"?>
<!-- Generator: Adobe Illustrator 26.5.0, SVG Export Plug-In . SVG Version: 6.00 Build 0)  -->
<svg version="1.1" id="レイヤー_1" xmlns="http://www.w3.org/2000/svg" xmlns:xlink="http://www.w3.org/1999/xlink" x="0px"
	 y="0px" viewBox="0 0 256.45 795.66" style="enable-background:new 0 0 256.45 795.66;" xml:space="preserve">
<style type="text/css">
	.st0{fill:#FFFFFF;}
</style>
<g>
	<path class="st0" d="M203.03,4.07c1.55,0.52,4.51,1.44,4.46,2.42c-0.02,0.33-2.5,1.42-3.23,1.71c-1.32,0.6-5.46,8.87-6.41,10.8
		c10.94-1.11,15.13-1.89,18.62-3.04l-1.62,12.36c-5.92,0.92-12.54,1.58-22.72,1.95c-11.19,20.48-31.1,43.72-32.01,44.77l-15.57-6.5
		c13.85-10.76,23.4-24.17,31.4-38.2c-5.87-0.07-13.59-0.24-19.45-0.42l-0.13-11.68c3.13,0.38,8.11,1.06,13.54,1.33
		c4,0.2,7.72,0.16,11.73,0.14c3.04-6.35,6.08-12.91,8.29-19.74L203.03,4.07z M235.32,94.56c-4.53-3.86-8.41-6.48-13.14-9.25
		c-1.37,4.56-4.5,12.77-24.35,11.78c-15.86-0.79-28.26-7.58-27.77-17.46c0.43-8.57,10.77-14.99,24.91-14.29
		c6.14,0.31,10.53,1.3,13.22,1.98c-0.02-2.42,0.07-12.99,0.18-15.19c0.37-7.36,3.36-9.97,7.79-12.61l13.81,7.3
		c-6.93,3.95-7.01,5.71-7.17,8.78c-0.13,2.64-0.13,14.2-0.25,16.51c10.09,4.47,16.75,8.65,22.69,13.02L235.32,94.56z M193.46,75.4
		c-8.28-0.41-9.34,3.61-9.4,4.82c-0.24,4.72,8.28,6.25,12.28,6.45c10.28,0.51,10.98-4.85,11.42-7.91
		C201.56,76.68,197.89,75.62,193.46,75.4z M247.41,47.36c-8.11-6.79-21.31-11.97-30.62-14.85l8.15-8.29
		c14.99,3.72,25.01,9.62,31.51,14.13L247.41,47.36z"/>
	<path class="st0" d="M134.41,194.6c6.67-10.24,16-22.33,24.57-33.25c15.76-20.25,25.7-32.97,34.45-47.62l13.82,7.08
		c1.53,0.85,3.91,2.07,3.86,2.95c-0.01,0.22-0.18,0.65-0.9,0.84c-0.44,0.09-2.89,0.52-3.33,0.72c-2.77,1.07-18.63,20.44-26.41,29.96
		c4.23-1.55,11.8-4.04,20.37-3.61c14.85,0.74,15.23,10.34,15.1,12.98c-0.15,2.97-4.57,17.06-4.74,20.36
		c-0.09,1.87,0.48,4.76,5.19,4.99c11.14,0.55,22.7-10.1,27.36-14.5l8.2,10.76c-10.45,8.51-22.06,17.4-38.77,16.57
		c-16.42-0.82-18.07-10.81-17.93-13.78c0.14-2.75,4.24-16.09,4.39-19.17c0.28-5.6-3.1-6.65-6.1-6.8
		c-5.57-0.28-15.88,2.51-23.21,8.87c-7.92,6.76-14.14,16.59-18.77,26.16L134.41,194.6z"/>
	<path class="st0" d="M241.74,241.58c-9.21,0.97-19.15,2.24-32.21,8.42c-8.07,3.89-27.5,14.6-28.29,30.42
		c-0.94,18.79,22.39,21.93,37.37,23.01l-5.93,12.7c-14.49-2.37-21.67-4.71-27.54-7.54c-14.26-6.88-20.92-17.01-20.44-26.57
		c0.98-19.67,20.14-30.72,32.23-37.71c-4.59,0.1-24.56,1.53-28.58,1.77c-10.2,0.7-18.96,1.15-29.87,1.82l-2.25-12.34
		c35.37-0.11,70.79-1.21,105.42-6.42L241.74,241.58z M232.5,274.71c-4.39-3.74-8.4-6.7-14.67-10.2l5.85-5.33
		c2.93,1.58,9.34,4.98,15.53,10.14L232.5,274.71z M244.19,264.39c-4.1-3.95-9.24-7.18-14.25-10.07l5.96-4.66
		c4.6,2.43,9.05,5.19,14.55,9.76L244.19,264.39z"/>
	<path class="st0" d="M196.45,391.86c-2.72-0.03-7.45,0.07-12.73-0.19c-7.28-0.36-11.26-1-14.39-1.49
		c-0.86,2.93-2.05,6.62-2.22,10.13c-0.48,9.56,7.89,14.05,18.75,14.59c17.85,0.89,27.76-8.2,28.2-16.99
		c0.28-5.71-2.07-10.12-7.18-16.77l13.57-5.16c5.33,7.97,8.81,15.75,8.39,24.21c-0.74,14.94-15.96,27.18-43.95,25.79
		c-26-1.29-34.06-14.69-33.57-24.47c0.24-4.72,1.75-9.27,3.57-14.14c-3.54-0.73-13.73-3.11-19.07-5.25l3.47-12.27
		c4.19,2.08,9.52,4.33,19.99,6.94c2.11-4.96,5.46-11.84,7.05-15.07c-8.22-1.62-13.74-3-22.36-5.3l2.91-12.41
		c4.06,1.96,9.38,4.32,24.68,7.51c2.84-5.37,9.01-17.06,10.25-21.74l14.87,6.25c1.26,0.5,3.64,1.61,3.6,2.49
		c-0.03,0.55-1.19,0.82-3.08,1.39c-1.31,0.38-8.75,11.79-10.15,14.03c1.56,0.19,5.41,0.6,8.41,0.75c4.43,0.22,8.45-0.02,11.89-0.18
		l-4.59,11.67c-9.99-0.61-14.69-1.17-21.66-2.07c-3.62,6.65-5.55,10.74-7.49,15.16c2.57,0.24,6.55,0.66,12.27,0.94
		c8.43,0.42,13.47-0.21,15.63-0.43L196.45,391.86z"/>
	<path class="st0" d="M175.27,503.7c-12.2,17.79-20.47,22.88-29.04,22.45c-14.14-0.71-23.98-18.82-22.88-40.79
		c0.38-7.69,2.02-14.66,3.71-19.86c0.68-2.17,4.05-12.35,4.74-14.74l15.01,6.14c1.4,0.62,3.79,1.62,3.74,2.61
		c-0.03,0.66-1.06,1.16-2.97,2.16c-1.18,0.6-7.8,12.83-8.5,26.89c-0.74,14.83,4.9,22.38,9.47,22.61c5,0.25,11.51-9.67,15.25-15.87
		L175.27,503.7z M218.09,512.22c0.32-23.66-9.96-38.6-16.44-46.53l15.53-4.18c12.97,15.52,17.58,35.02,18.57,49.83L218.09,512.22z"
		/>
	<path class="st0" d="M169.8,613.56c-12.2,17.79-20.47,22.88-29.04,22.45c-14.14-0.71-23.98-18.82-22.88-40.79
		c0.38-7.69,2.02-14.66,3.71-19.86c0.68-2.17,4.05-12.35,4.74-14.74l15.01,6.14c1.4,0.62,3.79,1.62,3.74,2.61
		c-0.03,0.66-1.06,1.16-2.97,2.17c-1.18,0.6-7.8,12.83-8.5,26.89c-0.74,14.83,4.9,22.38,9.47,22.61c5,0.25,11.51-9.67,15.25-15.87
		L169.8,613.56z M212.62,622.08c0.32-23.66-9.96-38.6-16.44-46.53l15.53-4.18c12.97,15.52,17.58,35.02,18.57,49.83L212.62,622.08z"
		/>
	<path class="st0" d="M107.22,743.04c14.63-12.05,24.41-27.2,30.23-43.43c-11.4,1.75-16.6,2.7-22.99,4.47l-4.63-13.34
		c9.9-0.5,12.06-0.72,30.92-2.64c2.04-9.37,2.65-15.73,2.62-23.77l14.48,2.59c4.82,0.9,5.39,0.93,5.35,1.81
		c-0.03,0.55-0.47,0.86-0.77,1.06c-0.3,0.32-2.21,1.21-2.37,1.53c-1.25,5-2.71,11.32-3.76,15.01c3.88-0.36,9.5-0.96,14.78-0.7
		c16.85,0.84,18.61,11.61,18.05,22.82c-0.69,13.84-5.54,24.95-7.13,28.17c-2.07,4.19-7.02,14.41-26.01,13.46
		c-5.57-0.28-8.95-1.44-11.34-2.22l-0.12-11.9c4.52,1.22,8.48,2.29,12.33,2.49c5.14,0.26,7.67-1.6,10.16-5.55
		c0.93-1.39,6.73-11.56,7.36-24.19c0.33-6.59,0.17-12-7.12-12.36c-3.57-0.18-12.79,0.91-14.37,1.05
		c-5.94,18.65-15.01,36.81-30.64,51.67L107.22,743.04z M195.75,710.67c6.77-0.76,9.36-1.08,9.48-3.49
		c0.04-0.77-0.21-7.28-17.13-24.09l10.88-5.63c22.2,20.05,23.17,32.21,23.05,34.63c-0.34,6.92-9.73,8.44-19.69,10.03L195.75,710.67z
		 M216.81,687.38c-2.95-4-6.07-7.57-11.27-12.24l7.93-4.01c4.95,4.1,8.89,8.37,12.13,12.28L216.81,687.38z M231,681.37
		c-2.81-3.88-5.37-7.1-10.16-11.52l7.78-3.91c4,3.17,7.12,6.52,10.72,11.88L231,681.37z"/>
	<path class="st0" d="M198.9,770.96c15.35,5.17,23.3,12.28,27.37,16.89l-11.27,7.81c-6.28-9.01-12.39-12.84-21.98-18.72
		L198.9,770.96z"/>
	<path class="st0" d="M9.94,45.77l0.62-12.52l119.12,5.93l-0.62,12.52L9.94,45.77z"/>
	<path class="st0" d="M35.94,184.85l-0.17,3.41l-14.71-0.73l1.73-34.72c-5.71,2.58-6.29,2.77-7.76,3.47l-11.46-8.61
		c7.56-2.27,23.41-7.2,39.31-18.75l-36.56-1.82l0.51-10.33l28.14,1.4c-1.51-1.4-4.8-4.2-9.09-7.17l6.18-3.33l-8.71-0.43l-6-11.86
		c4.4,0.77,9.09,1.55,18.94,2.04c8,0.4,42.57,2.01,68.58-2.86l7.71,9.08c0.81,0.92,1.08,1.38,1.06,1.71c-0.05,1.1-1.63,1.02-2.05,1
		c-0.71-0.04-3.83-0.63-4.55-0.67c-1-0.05-8.92,0.88-10.5,1.02l13.35,5.07c0.56,0.25,1.68,0.74,1.64,1.51
		c-0.03,0.66-0.03,0.66-3.49,1.15c-0.87,0.18-1.48,0.92-2.38,1.75c-0.9,0.84-4.52,4.51-5.27,5.24l26.71,1.33l-0.51,10.33
		l-38.28-1.91c10.77,8.03,22.86,15.46,39.9,21.15l-12.03,8.65c-0.84-0.37-1.68-0.85-9.22-4.64l-1.76,35.38l-14.71-0.73l0.17-3.41
		L35.94,184.85z M58.84,130.48c-7.33,6.35-14.45,11.29-25.2,17.25l62.99,3.14c-10.69-6.81-15.63-11.02-23.96-19.04l-0.71,14.28
		l-13.85-0.69L58.84,130.48z M36.68,170.02l-0.34,6.92l19.71,0.98l0.34-6.92L36.68,170.02z M57.08,157.15l-19.71-0.98l-0.33,6.59
		l19.71,0.98L57.08,157.15z M59.96,108.07c-12.74-0.08-14.17-0.15-20.31-0.35c4.16,2.74,7.17,5.42,10.7,9.34l-3.24,1.71l12.28,0.61
		L59.96,108.07z M70.39,171.69l-0.34,6.92l21,1.05l0.34-6.92L70.39,171.69z M92.07,158.9l-21-1.05l-0.33,6.59l21,1.05L92.07,158.9z
		 M92.39,121.03l-6.02-2.72c3.3-3.03,7.1-7.36,10.03-11.62c-8.34,0.8-16.8,1.04-22.54,1.19l-0.61,12.19L92.39,121.03z"/>
	<path class="st0" d="M56.93,266.51c-12.2,17.79-20.47,22.88-29.04,22.45c-14.14-0.7-23.98-18.82-22.88-40.79
		c0.38-7.69,2.02-14.66,3.71-19.86c0.68-2.17,4.05-12.35,4.74-14.74l15.01,6.14c1.4,0.62,3.79,1.62,3.74,2.61
		c-0.03,0.66-1.06,1.16-2.97,2.16c-1.18,0.6-7.8,12.83-8.5,26.89c-0.74,14.83,4.9,22.38,9.47,22.61c5,0.25,11.51-9.67,15.25-15.87
		L56.93,266.51z M99.75,275.03c0.32-23.66-9.96-38.6-16.44-46.53l15.53-4.18c12.97,15.51,17.58,35.02,18.56,49.83L99.75,275.03z"/>
	<path class="st0" d="M52,365.39c-12.2,17.79-20.47,22.88-29.04,22.45c-14.14-0.7-23.98-18.82-22.88-40.79
		c0.38-7.69,2.02-14.66,3.71-19.86c0.68-2.17,4.05-12.35,4.74-14.74l15.01,6.14c1.4,0.62,3.79,1.62,3.74,2.61
		c-0.03,0.66-1.06,1.16-2.97,2.16c-1.18,0.6-7.8,12.83-8.5,26.89c-0.74,14.83,4.9,22.38,9.47,22.61c5,0.25,11.51-9.67,15.25-15.87
		L52,365.39z M94.82,373.91c0.32-23.66-9.96-38.6-16.44-46.53l15.53-4.18c12.97,15.51,17.58,35.02,18.57,49.83L94.82,373.91z"/>
</g>
</svg>
