<?xml version="1.0" encoding="utf-8"?>
<!-- Generator: Adobe Illustrator 26.5.0, SVG Export Plug-In . SVG Version: 6.00 Build 0)  -->
<svg version="1.1" id="レイヤー_1" xmlns="http://www.w3.org/2000/svg" xmlns:xlink="http://www.w3.org/1999/xlink" x="0px"
	 y="0px" viewBox="0 0 301.44 160.32" style="enable-background:new 0 0 301.44 160.32;" xml:space="preserve">
<style type="text/css">
	.st0{fill:#FFFFFF;}
</style>
<g>
	<g>
		<g>
			<g>
				<path class="st0" d="M28.92,61.26l-1.15,0.26l-1.15,0.3l-1.21-0.1l-1.16,0.23l-1.15,0.27l-1.18,0.08l-1.13,0.41l-1.17,0.15
					l-1.16,0.2l-1.22-0.21l-1.11,0.55l-1.16,0.22l-1.24-0.28l-1.14,0.33l-1.18,0.13l-1.15,0.3l-1.2-0.03l-1.13,0.45l-1.14,0.34
					l-1.22-0.17l-1.19,0.07l-1.13,0.4l-0.57-1.07l-0.58-1.07l-0.11-1.26l-0.4-1.15l-0.84-0.97l-0.19-1.23L0,57.28l0.74-1.01
					l0.64-1.02l0.85-0.89l0.64-1.02l0.52-1.1l0.48-1.12l0.54-1.08l0.72-0.98l0.98-0.81l0.54-1.09l0.63-1.03l0.41-1.16l0.53-1.09
					l0.96-0.82l0.47-1.13l0.71-0.98l0.45-1.14l0.99-0.8l0.3-1.24l0.61-1.05l0.71-0.98l0.9-0.86l0.52-1.1l0.54-1.08l0.56-1.07
					l1.06-0.76l0.62-1.04l0.63-1.03l0.38-1.19l0.55-1.09l0.79-0.93l0.59-1.06l0.9-0.86l0.48-1.13l0.54-1.1l0.66-1.02l0.73-0.99
					l1.2-0.39l1.28,0.24l1.22-0.19l1.18-0.43l1.26,0.09l1.16-0.57l1.27,0.08L33.57,18l0.21,1.15l0.32,1.17l0.19,1.19l-0.06,1.23
					l0.03,1.22l0.56,1.13l-0.06,1.23l0.44,1.15l-0.1,1.24l0.41,1.16l0.18,1.19l-0.07,1.23l0.38,1.16l0.4,1.16l0.19,1.19l-0.06,1.23
					l0.07,1.21L37,39.4l0.17,1.19l-0.18,1.25l0.6,1.13l-0.02,1.23l0.2,1.19l0.31,1.18l0.2,1.19l-0.14,1.25l0.31,1.29l1.25-0.38
					l1.21,0.05l1.17-0.19l1.12-0.57l1.22,0.07l1.17-0.16l0.28,1.15l0.35,1.14l-0.04,1.21l-0.02,1.2l0.57,1.11l-0.14,1.22l0.35,1.15
					l0.08,1.19l-1.14,0.36l-1.17,0.19l-1.24-0.23l-1.15,0.36l-1.14,0.46l-1.3-0.12l0.25,1.2l0.39,1.1L40.28,63l0.63,1.06l-0.31,1.21
					l0.44,1.09l-0.09,1.17l0.18,1.13l0.23,1.13l0.48,1.23l-1.38,0l-1.19,0.46l-1.25,0l-1.25,0.02l-1.2,0.37l-1.25,0.03l-1.18,0.47
					l-1.25,0.05l-1.24,0.18l-0.32-1.11l-0.1-1.14l-0.26-1.12l-0.05-1.15l-0.14-1.14l-0.03-1.16l-0.05-1.15l-0.68-1.06l0.35-1.22
					L28.92,61.26z M27.48,51.87l-0.26-1.15l-0.3-1.14l0.1-1.21l-0.23-1.16l-0.27-1.15l-0.08-1.18l-0.41-1.14l-0.15-1.17l-0.2-1.17
					l0.21-1.23l-0.55-1.11l-0.22-1.17l0.28-1.25L25,35.42l-0.76,1.04l-0.53,1.09l-0.82,0.92l-0.4,1.17L22,40.75l-0.93,0.84
					l-0.73,0.97l-0.45,1.15l-0.52,1.1l-0.51,1.1l-0.95,0.84l-0.68,1l-0.28,1.25l-0.87,0.88l-0.54,1.09l-0.72,0.98l-0.64,1.04
					l-0.85,1.15l1.4-0.06l1.14-0.32l1.13-0.37l1.14-0.3l1.18-0.09l1.22,0.22l1.15-0.3l1.16-0.19l1.12-0.45l1.15-0.31l1.23,0.19
					L27.48,51.87z"/>
			</g>
			<g>
				<path class="st0" d="M58.36,56.08l1.21-0.13l1.21-0.2l1.21-0.21l1.21-0.2l1.21-0.22l1.22-0.17l1.22-0.17l1.22-0.19l1.21-0.24
					l1.23-0.16l0.21,1.2l0.17,1.2L71,57.82l0.23,1.19l0.14,1.21l0.3,1.19l0.09,1.22l0.18,1.2l0.21,1.2l0.23,1.23l-1.23,0.22
					l-1.22,0.12l-1.21,0.23L67.5,67l-1.22,0.14l-1.22,0.16l-1.2,0.26l-1.23,0.12l-1.21,0.29l-1.26,0.16l-0.12-1.24l-0.22-1.19
					l-0.14-1.21l-0.27-1.19l-0.11-1.21l-0.26-1.19l-0.19-1.2l-0.08-1.22l-0.23-1.2L58.36,56.08z"/>
			</g>
			<g>
				<path class="st0" d="M82.33,55.34l0.58-1.07l0.94-0.77l0.67-1.02l1.02-0.7l0.92-0.79l0.77-0.92l0.72-0.97l0.86-0.84l0.63-1.05
					l1.02-0.7l0.83-0.87l0.68-1.01l0.59-1.09l1.15-0.59l0.54-1.13l0.72-0.98l1.09-0.65l0.63-1.06l0.76-0.95l0.81-0.84l1.05-0.64
					l0.77-0.88l0.74-0.91l0.6-1.02l0.73-0.92l0.76-0.9l0.28-1.2l0.58-1l0.78-0.94l0.09-1.2l-0.01-1.16l-0.01-1.13l0.17-1.17
					l-0.37-1.2l-0.38-1.18l-0.49-1.18l-1.02-0.78l-0.9-0.94l-1.27-0.25l-1.19-0.45l-1.27,0.13l-1.21,0.36l-1.22,0.08l-1.22,0.23
					l-1.14,0.51l-0.8,1l-0.84,0.87l-1.13,0.61l-0.5,1.17l-0.65,1.03l-0.88,0.88l-0.88,0.9l-0.47,1.43l-1.09-0.62l-0.93-0.73
					l-0.99-0.62l-1-0.62l-0.9-0.77l-0.98-0.65l-1.08-0.47l-1.01-0.6L77.82,22l0.58-1.12l0.8-0.91l0.54-1.06l0.44-1.13l0.89-0.82
					l0.7-0.95l0.7-0.96l0.65-1.02l0.97-0.71l1.06-0.58l0.67-1.07l1.21-0.31l0.92-0.76l1.12-0.4l0.93-0.83l1.13-0.39l1.15-0.34
					l1.17-0.25l1.17-0.23l1.21,0.04l1.2-0.1l1.17-0.53l1.22,0.38l1.2,0.02l1.22-0.19l1.19,0.2l1.18,0.25l1.23,0.07l1.11,0.53
					l1.16,0.37l0.98,0.74l0.92,0.78l1.16,0.44l0.96,0.75l0.8,0.91l0.8,0.91l0.79,0.93l0.58,1.07l0.33,1.18l0.44,1.12l0.31,1.16
					l0.26,1.17l0.37,1.15l-0.06,0.16l0,1.19l0.58,1.15l-0.42,1.19l0.13,1.18l0.09,1.21l-0.21,1.18l-0.85,0.99l0.03,1.26l-0.61,1.03
					l-0.61,1.01l-0.43,1.11l-0.74,0.93l-0.7,0.95l-0.45,1.14l-0.88,0.82l-0.98,0.72l-0.48,1.15l-0.79,0.88l-0.94,0.75l-0.87,0.81
					l-0.72,0.95l-0.62,1.05l-1.05,0.67l-1,0.72l-0.77,0.94l-0.63,1.07l-0.93,0.79l-0.99,0.74l-0.68,1.04l-0.78,0.94l-0.96,0.83
					l1.26-0.12l1.21-0.17l1.19-0.25l1.2-0.19l1.23,0l1.19-0.26l1.17-0.4l1.22-0.04l1.23-0.05l1.2-0.19l1.21-0.14l1.19-0.3l1.2-0.23
					l1.19-0.28l1.2-0.24l1.19-0.3l1.21-0.17l1.25,0.05l1.06-0.07l0.6,1.02l-0.18,1.3l0.35,1.22l-0.13,1.3l0.28,1.23l0.45,1.21
					l0.26,1.24l0.08,1.3l-1.2,0.21l-1.22-0.11l-1.1,0.7l-1.24-0.21l-1.14,0.43l-1.17,0.25l-1.21-0.06l-1.13,0.49l-1.18,0.17
					l-1.19,0.11l-1.25-0.26l-1.13,0.51l-1.22-0.09l-1.15,0.37l-1.17,0.26l-1.18,0.17l-1.22-0.12l-1.14,0.44l-1.22-0.08l-1.12,0.54
					l-1.17,0.18l-1.18,0.18l-1.21-0.04l-1.15,0.36l-1.23-0.12l-1.15,0.43l-1.22-0.1l-1.14,0.47l-1.23-0.11l-1.1,0.7l-1.26-0.32
					l-1.12,0.64l-1.35,0.16l0.01-1.33l-0.49-1.09l0.12-1.19l-0.19-1.14l-0.14-1.15l-0.42-1.11l-0.21-1.15L82.33,55.34z"/>
			</g>
			<g>
				<path class="st0" d="M130.86,42.53l-0.03-0.15l0.14-1.2l-0.11-1.17l-0.21-1.19l-0.02-1.21l0.3-1.16l0.3-1.16l0.77-0.96
					l0.67-0.96l0.48-1.08l0.86-0.81l0.77-0.88l0.8-0.87l1-0.63l1.13-0.76l-1.36-0.32l-1.1-0.47l-0.97-0.71l-0.9-0.78l-0.67-1
					l-0.96-0.7l-0.51-1.08l-0.8-0.89l-0.7-0.99l-0.41-1.13l-0.18-1.19l-0.22-1.17l0.15-0.18l-0.42-1.17l0.45-1.21l-0.08-1.2
					l0.16-1.19l0.36-1.15l0.34-1.16l0.63-1.03l0.82-0.89l0.58-1.04l0.78-0.9l0.63-1.07l1.16-0.49l0.72-1.03l1.12-0.49l0.93-0.81
					l1.15-0.41l1.03-0.66l1.24-0.13l1.08-0.59l1.2-0.18l1.19-0.22l1.17-0.33l1.21-0.04l1.21,0.06l1.19-0.1L150.13,0l1.18,0.44
					l1.19,0.06l1.21,0.03l1.21,0.11l1.17,0.31l0.99,0.8l1.15,0.35l1.15,0.41l1.02,0.65l0.96,0.73l1.03,0.67l0.51,1.17l0.66,0.98
					l0.77,0.91l0.86,0.92l0.22,1.22l0.12,1.21l0.63,1.1l-0.19,0.18l0.26,1.16l-0.04,1.19l0.16,1.2l-0.16,1.19l-0.23,1.18l-0.49,1.1
					l-0.71,0.97l-0.4,1.13l-0.58,1.05l-0.86,0.83l-0.99,0.68l-0.59,0.77l0.94,0.43l1.14,0.51l1.19,0.4l1.15,0.53l0.94,0.86
					l1.07,0.67l0.88,0.91l0.82,0.96l0.25,1.31l0.56,1.08l0.6,1.08l0.31,1.2l0.25,1.22l-0.15,0.18l0.32,1.17l0.08,1.2l0.1,1.22
					l-0.16,1.21l-0.46,1.14l-0.41,1.13l-0.48,1.1l-0.62,1.02l-0.68,0.97l-0.69,0.97l-0.68,1l-0.97,0.72l-0.71,1.03l-1.04,0.64
					l-1,0.68l-1.23,0.26l-1.05,0.58l-1.08,0.53l-1.07,0.58l-1.13,0.43l-1.17,0.33l-1.23,0.03l-1.14,0.43l-1.22,0l-1.18,0.1
					l-1.16,0.34l-1.2-0.06l-1.19,0.17l-1.19-0.12l-1.21,0.16l-1.15-0.44l-1.24,0.2l-1.16-0.32l-1.19-0.22l-1.02-0.73l-1.23-0.15
					l-0.9-0.87l-1.01-0.59l-1-0.62l-1.09-0.54l-0.71-0.98l-0.98-0.71l-0.75-0.94l-0.58-1.05l-0.43-1.12l-0.53-1.07l-0.4-1.13
					L130.86,42.53z M155.13,15.22l-0.03-0.15l-0.03-1.25l-0.6-1.09l-0.95-0.79l-1.01-0.63l-1-0.62l-1.14-0.32l-1.14-0.53l-1.24-0.16
					l-1.21,0.34l-1.23,0.11l-1.15,0.45l-1.04,0.65l-1.06,0.6l-0.97,0.78l-0.37,1.21l-0.35,1.11l-0.29,1.13l-0.03,1.18l-0.27,0.2
					l0.53,1.17l0.33,1.24l0.95,0.87l1.06,0.63l1.04,0.59l1.1,0.52l1.21,0.21l1.24,0.21l1.2-0.41l1.31,0.2l1.13-0.58l1.09-0.6
					l1.02-0.7l0.78-0.96l0.74-0.99l0.66-1.11l0.03-1.29L155.13,15.22z M160.1,37.14l-0.03-0.15l0-1.18l-0.54-1.04L158.65,34
					l-0.93-0.61l-0.92-0.62l-1.06-0.36l-1.02-0.6l-1.14-0.28l-1.16,0.18l-1.16-0.09l-1.14,0.2l-1.11,0.33l-1.14,0.18l-1.14,0.27
					l-0.88,0.82l-0.91,0.66l-0.93,0.63l-0.82,0.77l-0.86,0.83l-0.18,1.17l-0.39,1.12l0.3,1.15l0.24,0.12l0.28,1.06l0.37,1.05
					l0.69,0.88l0.75,0.87l1.12,0.33l0.88,0.86l1.17,0.12l1.14,0.12l1.14,0.09l1.14-0.14l1.15-0.03l1.19,0.03l1.09-0.44l1.1-0.39
					l0.9-0.77l1.18-0.28l0.64-1.03l0.91-0.71l0.39-1.09l0.53-1l-0.02-1.13L160.1,37.14z"/>
			</g>
			<g>
				<path class="st0" d="M180.93,45.48l0.67-0.98l0.28-1.12l0.47-1.04l0.44-1.06l0.72-0.94l0.22-1.22l1.22,0.5l0.99,0.68l1.19,0.17
					l1.11,0.35l1.11,0.39l1.15,0.26l1.18-0.1l1.17,0.28l1.15-0.31l1.2-0.21l1.09-0.54l0.95-0.8l-0.03-1.22l0-0.12l-0.56-1.09
					l-1.13-0.61l-1.25-0.29l-1.25-0.38l-1.32,0.09l-1.24-0.45l-1.21,0.1l-1.12-0.48l-1.18-0.15l-1.11-0.41l-1.1-0.42l-1.04-0.56
					l-1.08-0.53l-0.81-0.89l-0.65-0.99l-0.65-0.99l-0.21-1.18l-0.37-1.13l-0.13-0.1l0.09-1.21l0.08-1.18l0.12-1.17l0.36-1.12
					l0.27-1.18l0.73-0.96l0.8-0.88l0.78-0.9l0.99-0.67l1.06-0.55l1.06-0.54l1.11-0.42l1.14-0.38l1.18-0.19l1.2-0.25l1.23,0.08
					l1.22,0.06l1.22,0.02l1.21,0.14l1.23,0.07l1.16,0.41l1.2,0.26l1.17,0.38l1.09,0.6l-0.37,1.09l-0.34,1.09l-0.44,1.06l-0.45,1.06
					l-0.45,1.07l-0.42,1.04l-1.16-0.26l-1.15-0.58l-1.26-0.22l-1.24-0.31l-1.26-0.22l-1.27,0.13l-1.28-0.18l-1.07,0.26l-0.88,0.65
					l-0.8,0.72l0.03,1.06l-0.2,0.15l0.85,0.91l0.99,0.82l1.27,0.22l1.26,0.19l1.25,0.21l1.24,0.29l1.16,0.21l1.17,0.16l1.08,0.53
					l1.11,0.38l1.14,0.31l1.12,0.4l0.9,0.79l0.81,0.84l0.93,0.75l0.61,1.03l0.42,1.11l0.1,1.19l-0.05,0.12l0.38,1.13l-0.25,1.17
					l0.03,1.17l-0.2,1.16l-0.38,1.12l-0.68,0.97l-0.68,0.96l-0.92,0.73l-0.92,0.7l-1,0.57l-1,0.58l-1.09,0.39l-1.08,0.44l-1.11,0.4
					l-1.19,0l-1.16,0.26l-1.19-0.02l-1.19,0.12l-1.18-0.25l-1.19-0.03l-1.17-0.19l-1.17-0.22l-1.12-0.42l-1.18-0.24l-1.07-0.53
					l-1.1-0.45L180.93,45.48z"/>
			</g>
			<g>
				<path class="st0" d="M212.86,33.75l0.12-1.2l-0.45-1.12l-0.18-1.16l0.02-1.19l-0.4-1.12l-0.1-1.17l-0.25-1.15l-0.16-1.16
					l-0.13-1.17l-0.18-1.16L211,20.97l-0.1-1.17l-0.19-1.16l-0.09-1.18l-0.26-1.15l-0.33-1.14l-0.15-1.26l1.33-0.12l1.22-0.31
					l1.27,0.07l1.21-0.34l1.26-0.04l1.24-0.16l1.16-0.27l0.1,1.16l0.29,1.2l0.32,1.19l-0.06,1.25l0.39,1.18l0.01,1.24l0.24,1.21
					l0.38,1.18l-0.04,1.25l0.13,1.23l0.28,1.2l0.32,1.2l0.02,1.25l0.28,1.21l0.14,1.17l0.48,1.07l0.45,1.09l0.87,0.79l0.77,0.92
					l1.18,0.2l1.13,0.09l1.19,0.24l1.09-0.55l1.06-0.47l1.06-0.56l0.74-0.95l0.23-1.18l0.24-1.13l0.01-1.16l0.02-1.18l-0.36-1.19
					l0.1-1.26l-0.45-1.17l-0.08-1.23l-0.15-1.22l-0.06-1.23l-0.45-1.18l0.04-1.25l-0.19-1.22l-0.27-1.2l-0.2-1.21l-0.25-1.21
					l0.03-1.25L229.23,11l1.3-0.02l1.2-0.39l1.22-0.26l1.24-0.16l1.24-0.16l1.25-0.15l1.17-0.06l0.4,1.04l-0.04,1.2l0.33,1.15
					l0.23,1.17l-0.05,1.21l0.31,1.15l0.06,1.19l0.16,1.18l0.23,1.16l0.35,1.15l-0.1,1.22l0.27,1.16l0.17,1.17l0.12,1.18l0.2,1.17
					l0.2,1.17l0.22,1.17l0.24,1.16l0.19,1.17l0.18,1.17l0.14,1.18l0.28,1.16l0.16,1.18l0.15,1.18l0.29,1.16l-0.04,1.14l-1.14,0.36
					l-1.23,0.22l-1.27-0.04l-1.24,0.13l-1.21,0.34l-1.25,0.11l-1.14,0.13l-0.2-0.95l-0.11-1.09l-0.19-1.08l-0.16-1.11l-0.81,0.98
					l-0.48,1.11l-0.8,0.89l-0.88,0.81l-0.85,0.85l-1,0.67l-1.14,0.4l-1.15,0.32l-1.16,0.28l-1.17,0.1l-1.17-0.01l-1.16-0.13
					l-1.16-0.14l-1.15-0.26l-1.1-0.45l-0.87-0.82l-1.04-0.6l-0.8-0.89l-0.67-0.98l-0.31-1.17l-0.59-1.01l-0.42-1.09l-0.29-1.14
					L212.86,33.75z"/>
			</g>
			<g>
				<path class="st0" d="M248.01,8.23l1.14-0.37l1.26,0l1.22-0.26l1.24-0.18l1.24-0.13l1.22-0.34l1.32-0.21l0.14,1.18l0.23,1.07
					l0.22,1.08l-0.09,1.15l0.68-1.08l0.59-1.05l0.87-0.84l0.77-0.92l1.05-0.58l0.87-0.86l1.14-0.41l1.18-0.21l1.14-0.34l1.16-0.23
					l1.18-0.02l1.16,0.23l1.19,0.06l1.11,0.42l0.98,0.67l1.11,0.44l0.81,0.86l0.8,0.86l0.56,1.03l0.83,0.88l0.28,1.16l0.31,1.12
					l0.54,1.08l0.22,1.16l0,1.19l0.19,1.16l0.08,1.18l0.46,1.12l-0.05,1.19l0.17,1.16l0.39,1.13l-0.09,1.2l0.29,1.14l0.27,1.15
					l-0.06,1.2l0.3,1.14l0.23,1.16l0.29,1.15l0.13,1.17l0.25,1.16l0.01,1.19l-1.22,0.23l-1.24,0.18l-1.23,0.21l-1.25,0.06
					l-1.23,0.24l-1.22,0.34l-1.26,0.05l-0.21-1.21l-0.04-1.24l-0.31-1.19l-0.35-1.19l0.14-1.26l-0.21-1.21l-0.18-1.22l-0.36-1.19
					l0.01-1.25l-0.18-1.22l-0.47-1.17l-0.12-1.23l-0.04-1.24l-0.39-1.19l-0.26-1.13l-0.11-1.2l-0.59-1.03l-0.86-0.8l-0.91-0.69
					l-1.06-0.43l-1.14-0.19l-1.15,0.13l-1.19,0.1l-0.96,0.72l-0.97,0.63l-0.76,0.9l-0.33,1.12l-0.45,1.11l0.16,1.19l0.02,1.18
					l0.08,1.23l0.42,1.18l0.21,1.21l-0.03,1.25l0.21,1.21l0.18,1.21l0.4,1.18l0.08,1.23l0.26,1.2l0.09,1.23l0.06,1.23l0.26,1.21
					l0.3,1.2l0.23,1.33l-1.34,0.23l-1.25,0.07l-1.24,0.19l-1.22,0.28l-1.24,0.16l-1.27-0.02l-1.15,0.22l-0.41-1.05l-0.1-1.18
					l-0.25-1.16l-0.03-1.2l0-1.2l-0.2-1.17l-0.37-1.14l-0.03-1.2l-0.44-1.13l0.08-1.21l-0.43-1.13l-0.06-1.19l0.03-1.2l-0.18-1.17
					l-0.35-1.14l-0.2-1.17l-0.28-1.16l-0.13-1.18l0.06-1.21l-0.31-1.15l-0.21-1.17l-0.09-1.19l-0.4-1.14l-0.01-1.2l-0.07-1.19
					L248.01,8.23z"/>
			</g>
		</g>
	</g>
	<g>
		<g>
			<g>
				<path class="st0" d="M11.74,94.88l-1.03,0.47l-1.09,0.39L8.6,96.29l-1.15,0.26l-1,0.43l-0.47-1.02L5.6,94.82l-0.53-1.07
					l-0.45-1.11L3.93,91.5l1.22-0.49l1.16-0.37l1.03-0.65l1.14-0.4L9.53,89l1.14-0.41l1.05-0.62l1.05-0.65l1.25,0.07l1.15-0.45
					l1.21-0.08l1.26-0.25l-0.01,1.28L18,89.06l-0.02,1.22l0.46,1.15l-0.09,1.23l0.21,1.18l0.44,1.15l-0.09,1.23l0.44,1.15l0,1.22
					l0.2,1.18l0.21,1.18l0.26,1.18l0.23,1.18l0.04,1.21l0.38,1.15l-0.09,1.23l0.16,1.19l0.31,1.17l0.15,1.2l0.19,1.19l0.06,1.21
					l0.41,1.16l0.13,1.2l0.31,1.17l0.2,1.19l-0.06,1.15l-1.05,0.33l-1.17,0.09l-1.14,0.23l-1.15,0.2l-1.16,0.16l-1.07,0l-0.18-1.07
					l-0.36-1.16l0.05-1.22l-0.26-1.18l-0.24-1.18l-0.19-1.19l-0.15-1.2l-0.15-1.19l-0.11-1.2l-0.32-1.16l-0.14-1.2l-0.14-1.19
					l-0.2-1.19l-0.12-1.2l-0.2-1.19l-0.21-1.19l-0.23-1.19l-0.21-1.19L12,97.27l-0.01-1.22L11.74,94.88z"/>
			</g>
			<g>
				<path class="st0" d="M28.63,101.64l-0.16-0.07l0.05-1.24l-0.22-1.21l0.01-1.23l-0.05-1.24l0.19-1.22l0.33-1.19l0.18-1.22
					l0.59-1.1l0.34-1.19l0.49-1.14l0.77-0.97l0.75-0.97l0.67-1.06l1-0.74l0.97-0.76l1.04-0.67l1.19-0.36l1.13-0.43l1.11-0.56
					l1.24-0.04l1.19-0.36l1.23,0.13l1.21,0.15L45.09,83l1.21,0.22l1.07,0.63l1.09,0.52l1.11,0.51l1.08,0.6l0.95,0.79l0.86,0.88
					l0.68,1.03l0.6,1.07l0.83,0.92l0.44,1.15l0.43,1.14l0.69,1.05l0.08,1.25l0.53,1.13l0.07,1.23l-0.05,0.1l0.19,1.15l0.12,1.17
					l0.06,1.17l-0.21,1.16l0.08,1.18l-0.18,1.16l-0.48,1.09l-0.31,1.12l-0.17,1.19l-0.58,1.03l-0.51,1.07l-0.84,0.85l-0.64,0.99
					l-0.78,0.88l-0.92,0.73l-0.97,0.66l-1.01,0.6l-1.03,0.57l-1.12,0.36l-1.15,0.26l-1.13,0.37l-1.23,0.07l-1.23-0.17l-1.24,0.2
					l-1.2-0.32l-1.17-0.37l-1.16-0.37l-1.03-0.66l-1.19-0.38l-0.92-0.82l-0.96-0.76l-0.86-0.87l-0.79-0.94l-0.58-1.08l-0.75-0.97
					l-0.67-1.03l-0.33-1.2l-0.5-1.12l-0.4-1.16l-0.32-1.19L28.63,101.64z M49.75,98.41l-0.15-0.07l-0.01-1.18l-0.43-1.09l-0.35-1.1
					l-0.57-1.01l-0.51-1.03l-0.57-1.01l-0.86-0.78l-0.75-0.91l-1.08-0.47l-1.1-0.31l-1.12-0.3l-1.16,0.05l-1.14,0.52l-1.15,0.45
					l-0.95,0.8l-0.76,0.98l-0.78,1l-0.45,1.18l-0.07,1.27l-0.36,1.22l0.18,1.26l-0.11,1.26l0.08,1.26l0.18,0.07l0.3,1.12l0.06,1.18
					l0.36,1.11l0.57,1.02l0.68,0.94l0.67,0.93l0.75,0.85l0.78,0.85l0.94,0.71l1.16,0.18l1.12,0.31l1.17,0l1.14-0.58l1.24-0.32
					l0.8-0.99l0.89-0.88l0.66-1.07l0.4-1.19l0.25-1.23l0.12-1.25l0.21-1.25l-0.25-1.25L49.75,98.41z"/>
			</g>
			<g>
				<path class="st0" d="M62.95,87.69l1.17-0.23l1.23-0.19l1.24-0.11l1.2-0.4l1.24-0.12l1.31-0.22l0.12,1.3l0.08,1.23l0.33,1.19
					l0.18,1.21l0.23,1.21l0.16,1.26l-1.26,0.23l-1.22,0.23l-1.26-0.04l-1.2,0.39l-1.24,0.16L64,94.92l-0.15-1.21l-0.28-1.2
					l-0.24-1.2l-0.11-1.22l-0.18-1.22L62.95,87.69z M65.56,104.81l1.17-0.23l1.23-0.19l1.24-0.11l1.2-0.4l1.24-0.12l1.31-0.22
					l0.12,1.3l0.08,1.23l0.33,1.19l0.18,1.21l0.23,1.21l0.15,1.26l-1.26,0.23l-1.22,0.23l-1.26-0.04l-1.2,0.39l-1.24,0.16
					l-1.24,0.11l-0.15-1.21l-0.28-1.2l-0.24-1.2l-0.11-1.22l-0.18-1.22L65.56,104.81z"/>
			</g>
			<g>
				<path class="st0" d="M78.94,93.95l-0.18-0.07l-0.04-1.24l0.08-1.24l-0.18-1.22l-0.01-1.24l0.29-1.2l0.24-1.2l0.36-1.17
					l0.22-1.22l0.65-1.06L80.9,82l0.54-1.1L82.29,80l0.61-1.11l0.99-0.75l0.97-0.76l1.02-0.7l1.09-0.59l1.2-0.31l1.21-0.21
					l1.19-0.29l1.19-0.36l1.24,0L94.24,75l1.16,0.46l1.23,0.11l1.07,0.62l1.16,0.39l1.04,0.64l1.06,0.63l0.98,0.75l0.65,1.07
					l0.99,0.76l0.49,1.15l0.85,0.91l0.4,1.17l0.59,1.07l0.26,1.2l0.6,1.09l0.23,1.21l0.24,1.2l-0.18,0.12l0.36,1.14l0.03,1.18
					l0.06,1.17l-0.13,1.17l-0.21,1.15l-0.08,1.17l-0.12,1.18l-0.63,1.03l-0.4,1.09l-0.24,1.18l-0.6,1.02l-0.8,0.88l-0.72,0.93
					l-0.76,0.9l-0.89,0.77l-0.9,0.77l-1.13,0.4l-1.05,0.51l-1.07,0.48l-1.1,0.44l-1.17,0.17l-1.22,0.18l-1.24,0.03l-1.21-0.3
					l-1.24,0l-1.17-0.4l-1.09-0.57l-1.16-0.39l-1.06-0.61l-1.02-0.68l-0.99-0.74l-0.78-0.95l-0.71-1l-0.75-0.96l-0.74-0.98
					l-0.37-1.19l-0.68-1.04l-0.31-1.19l-0.54-1.12l0-1.26L78.94,93.95z M100.06,90.72l-0.18-0.07l-0.1-1.15l-0.13-1.17l-0.54-1.05
					l-0.52-1.03l-0.42-1.08l-0.65-0.96l-0.73-0.91l-1-0.62l-0.9-0.76l-1.12-0.37l-1.17-0.05l-1.17-0.08l-1.13,0.6l-1.15,0.45
					l-0.94,0.8l-0.72,1l-0.56,1.09l-0.57,1.11l-0.42,1.19l-0.11,1.26l0.18,1.25l0.03,1.24l0.15,1.24l-0.26,0.13l0.4,1.11l0.08,1.18
					l0.5,1.06l0.44,1.07l0.65,0.96l0.7,0.9l0.56,1.06l1.06,0.54l0.86,0.82l1.18,0.16l1.11,0.35l1.15-0.17l1.27-0.15l1-0.8l0.99-0.74
					l0.76-0.98l0.78-1l0.24-1.25l0.34-1.2l0.12-1.24l0.13-1.24l0.04-1.26L100.06,90.72z"/>
			</g>
			<g>
				<path class="st0" d="M113.82,88.62l0-0.09l-0.02-1.24l-0.05-1.23l-0.01-1.23l-0.02-1.23l0.11-1.23l0.41-1.17l0.18-1.22
					l0.44-1.15l0.55-1.09l0.47-1.13l0.49-1.14l0.82-0.93l0.75-0.99l1.11-0.61l0.8-0.97l1.12-0.54l1.07-0.61l1.21-0.27l1.15-0.44
					l1.18-0.39l1.23-0.07l1.23,0.1l1.22,0.01l1.19,0.29l1.24,0.11l1.06,0.66l1.2,0.32l0.97,0.76l1.13,0.53l0.74,1.01l0.91,0.81
					l0.94,0.81l0.63,1.06l0.66,1.04l0.64,1.05l0.35,1.19l0.34,1.18l0.58,1.1l0.15,1.23l0.11,1.22l0.25,0.06l-0.1,1.19l0.2,1.16
					l0.14,1.17l-0.26,1.16l-0.03,1.17l-0.33,1.13l0.05,1.21l-0.6,1.04l-0.42,1.08l-0.36,1.12l-0.71,0.94l-0.59,1.01l-0.69,0.94
					l-0.91,0.74l-0.69,0.99l-1.11,0.47l-0.92,0.74l-1.15,0.31l-1,0.66l-1.19,0.1l-1.11,0.41l-1.22,0.15l-1.23-0.02l-1.23,0
					l-1.17-0.46l-1.26,0l-1.1-0.57l-1.17-0.4l-1.03-0.68l-0.97-0.76l-0.97-0.76l-0.7-1.02l-0.93-0.81l-0.8-0.94l-0.38-1.2
					l-0.59-1.06l-0.67-1.04l-0.49-1.13l-0.25-1.21l-0.33-1.18L113.82,88.62z M134.94,85.39l0-0.09l-0.08-1.16l-0.26-1.13l-0.37-1.1
					l-0.54-1.03l-0.59-0.99l-0.5-1.06l-0.87-0.78l-0.85-0.79l-0.96-0.68l-1.13-0.31l-1.16,0.01l-1.14-0.03l-1.16,0.41l-1.25,0.3
					l-0.78,1.02l-0.87,0.88l-0.54,1.12l-0.61,1.11l-0.18,1.25l-0.01,1.25l-0.11,1.23l-0.08,1.26l0.21,1.24l-0.08,0.11l0.41,1.1
					l0.04,1.19l0.58,1.03l0.31,1.13l0.76,0.9l0.42,1.11l0.83,0.82l1,0.59l0.92,0.67l1.08,0.37l1.13,0.08l1.15,0.1l1.24-0.23l1-0.78
					l1.04-0.68l0.87-0.91l0.4-1.21l0.67-1.08l0.17-1.25l0.04-1.25l0.26-1.24l-0.14-1.25L134.94,85.39z"/>
			</g>
			<g>
				<path class="st0" d="M148.59,81.67l1.16-0.19l1.17-0.16l1.16-0.24l1.18-0.09l1.15-0.28l1.17-0.16l1.17-0.14l1.18-0.1l1.15-0.28
					l1.18-0.09l1.18-0.16l1.17-0.26l0.2,1.11l0.1,1.11l0.14,1.11l0.26,1.09l0.09,1.12l0.25,1.12l-1.19,0.12l-1.16,0.23l-1.17,0.16
					l-1.15,0.25l-1.19,0.06l-1.16,0.22l-1.17,0.18l-1.16,0.25l-1.17,0.15l-1.16,0.22l-1.17,0.19l-1.19,0.11l-0.19-1.11l-0.16-1.1
					l-0.22-1.1l-0.04-1.13l-0.26-1.1L148.59,81.67z"/>
			</g>
			<g>
				<path class="st0" d="M173.65,70.13l-1.11,0.28l-1.07,0.44l-1.02,0.55l-1.12,0.34l-1.08,0.72l-0.4-1.24l-0.59-1.05l-0.21-1.21
					l-0.53-1.08l-0.62-1.1l1.19-0.43l1.07-0.56l1.07-0.57l1.06-0.58l1.07-0.56l1.22-0.26l1.03-0.65l1.07-0.62l1.25,0.07l1.17-0.33
					l1.19-0.2l1.28-0.26l-0.04,1.31l0.31,1.17l0.05,1.21l0.44,1.15l0.16,1.19l0.16,1.19l0.04,1.21l0.16,1.19l0.42,1.15l0.15,1.19
					l0.13,1.19l0.07,1.2l0.28,1.17l-0.02,1.22l0.34,1.17l0.07,1.2l0.18,1.19l0.22,1.18l0.2,1.18l0.06,1.21l0.32,1.17l0.27,1.18
					l0.24,1.18l0.05,1.21l0.14,1.2l0.4,1.16l-0.02,1.19l-1.12,0.12l-1.12,0.37l-1.19-0.07l-1.12,0.41L178.65,95l-1.18,0.12
					l-0.15-1.21l-0.18-1.19l-0.05-1.21l-0.41-1.15l-0.06-1.21l-0.1-1.2l-0.18-1.19l-0.19-1.19l-0.42-1.15l-0.17-1.19l-0.06-1.21
					l-0.24-1.18l-0.07-1.2l-0.37-1.16l-0.1-1.2l-0.07-1.21l-0.26-1.18l-0.16-1.19l-0.13-1.2l-0.25-1.19L173.65,70.13z"/>
			</g>
			<g>
				<path class="st0" d="M196.25,89.25l-0.88-0.8l-1-0.69l-0.78-0.92l-0.56-1.07l-0.4-1.13l-0.43-1.1l-0.5-1.08l-0.42-1.12
					l-0.36-1.14l-0.28-1.17l-0.07-1.21l-0.12-0.07l-0.13-1.21l-0.18-1.21l0.06-1.22l-0.11-1.22l0.05-1.22l0.16-1.21l0.23-1.2
					l0.38-1.16l0.2-1.21l0.6-1.07l0.38-1.17l0.7-1l0.7-1l0.77-0.96l0.95-0.77l1.07-0.59l1.04-0.61l1.13-0.43l1.11-0.47l1.16-0.36
					l1.17-0.35l1.22-0.08l1.22-0.08l1.21,0.07l1.2,0.2l1.2,0.16l1.16,0.35l1.11,0.48l1.18,0.33l0.97,0.65l-0.48,0.97l-0.41,1.02
					l-0.51,0.98l-0.49,0.99l-0.3,1.08l-0.63,0.91l-1.07-0.47l-1.02-0.69l-1.2-0.21l-1.17-0.32l-1.21,0.13l-1.22-0.07l-1.19,0.33
					l-1.05,0.62l-0.95,0.74l-0.73,0.95l-0.79,0.96l-0.25,1.21l-0.2,1.2l-0.06,1.21l-0.08,1.3l0.99-0.77l0.96-0.67l1-0.62l1.1-0.41
					l1.1-0.45l1.19-0.08l1.19-0.4l1.24-0.04l1.25,0l1.19,0.42l1.23,0.15l1.2,0.35l1.06,0.66l0.93,0.82l0.98,0.75l0.76,0.98
					l0.64,1.06l0.46,1.15l0.38,1.17l0.06,1.24l0.01,0.09l0.41,1.2l-0.23,1.24l-0.05,1.24l-0.38,1.18l-0.32,1.2l-0.53,1.12
					l-0.89,0.89l-0.69,1.02l-0.84,0.91l-0.95,0.81l-1.18,0.45l-1.05,0.67l-1.24,0.21l-1.14,0.52l-1.2,0.34l-1.15,0l-1.13,0.11
					l-1.14,0.09l-1.11-0.39l-1.13-0.07l-1.07-0.38l-1.05-0.4l-0.97-0.58L196.25,89.25z M209.54,79.81l0.05-0.1l-0.53-1.07
					l-0.61-0.96l-0.76-0.86l-0.96-0.7l-1.15-0.35l-1.2,0.02l-1.17,0.19l-1.11,0.32l-1.05,0.45l-1.04,0.5l-0.71,0.9l-0.56,0.98
					l-0.18,1.11l-0.07,1.14l0.12,0.07l0.31,1.1l0.54,1.01l0.8,0.83l0.97,0.67l1.17,0.17l1.16,0.27l1.16-0.26l1.15-0.17l1.07-0.46
					l0.92-0.69l0.82-0.79l0.67-0.96l0.24-1.16L209.54,79.81z"/>
			</g>
			<g>
				<path class="st0" d="M221.66,63.35l1.26-0.11l1.21-0.28l1.23-0.15l1.23-0.17l1.23-0.19l1.23-0.2l0.29,1.2l0,1.24l0.36,1.18
					l0.05,1.23l0.11,1.23l0.34,1.23l-1.27,0.19l-1.25,0.06l-1.2,0.37l-1.23,0.2l-1.25,0.1l-1.25,0.2l-0.12-1.24l-0.28-1.2
					l-0.18-1.21l-0.02-1.24l-0.37-1.19L221.66,63.35z M224.28,80.47l1.26-0.11l1.21-0.28l1.23-0.15l1.23-0.17l1.23-0.19l1.23-0.2
					l0.29,1.2l0,1.24l0.36,1.18l0.05,1.23l0.11,1.23l0.34,1.23l-1.27,0.19l-1.25,0.06l-1.2,0.37l-1.23,0.2l-1.25,0.1l-1.25,0.2
					l-0.12-1.24l-0.28-1.2l-0.18-1.21l-0.02-1.24l-0.37-1.19L224.28,80.47z"/>
			</g>
			<g>
				<path class="st0" d="M237.6,69.7l0.13-0.11l-0.25-1.21l-0.13-1.23l0.1-1.23l0.03-1.23l0.13-1.23l0.22-1.21l0.34-1.19l0.51-1.12
					l0.3-1.21l0.59-1.08l0.77-0.97l0.78-0.94l0.59-1.12l1.12-0.6l0.86-0.89l1.06-0.62l1.13-0.49l1.11-0.52l1.21-0.23l1.17-0.42
					l1.23-0.12l1.23-0.03l1.21,0.23l1.2,0.22l1.22,0.17l1.18,0.34l1.1,0.55l1.08,0.59l0.93,0.81l0.89,0.83l0.95,0.78l0.68,1.03
					l0.75,0.97l0.55,1.09l0.65,1.03l0.35,1.17l0.56,1.09l0.35,1.17l0.37,1.17l0.26,1.2l-0.02,0.1l0.14,1.17l0.08,1.17l-0.11,1.18
					l0.01,1.17l-0.19,1.16l-0.2,1.15l-0.12,1.17l-0.27,1.15l-0.69,0.99l-0.47,1.06l-0.32,1.16l-0.89,0.81l-0.66,0.96l-0.7,0.96
					l-0.95,0.71l-0.96,0.68l-1.1,0.43l-0.94,0.76l-1.17,0.21l-1.12,0.31l-1.15,0.18l-1.21,0.1l-1.21,0.01l-1.24,0.22l-1.21-0.27
					l-1.14-0.46l-1.19-0.28l-1.02-0.69l-1.05-0.59l-1.15-0.5l-0.82-0.93l-0.92-0.81l-0.81-0.92l-0.54-1.12l-0.72-0.98l-0.61-1.06
					L239,74.4l-0.55-1.11l-0.22-1.21l-0.41-1.17L237.6,69.7z M258.72,66.47l0.13-0.11l-0.31-1.12l-0.33-1.1l-0.27-1.13l-0.49-1.05
					l-0.57-1l-0.66-0.94l-0.74-0.88l-0.8-0.85l-1.09-0.43l-1.06-0.42l-1.12-0.31l-1.18,0l-1.13,0.61l-1.25,0.29L247,58.99l-0.8,0.95
					l-0.66,1.07l-0.35,1.2l-0.4,1.19l0.03,1.26l-0.06,1.24l0.06,1.25l0,1.26l-0.01,0.1l0.35,1.12l0.36,1.1l0.34,1.1l0.49,1.04
					l0.45,1.07l0.62,0.98l0.86,0.78l0.79,0.85l1.02,0.55l1.06,0.49l1.17,0.07l1.18,0.09l1.19-0.46l1.11-0.57l0.9-0.85l0.73-0.99
					l0.62-1.06l0.43-1.16l0.29-1.21l0.29-1.22l-0.01-1.25l0.02-1.26L258.72,66.47z"/>
			</g>
			<g>
				<path class="st0" d="M272.71,64.33l0.19-0.12L272.69,63l-0.24-1.22l0.2-1.23l0.06-1.22l-0.12-1.25l0.24-1.21l0.42-1.16
					l0.46-1.14l0.36-1.18l0.66-1.04l0.55-1.1l0.77-0.96l0.88-0.86l0.9-0.83l0.93-0.8l1.05-0.64l1.07-0.61l1.12-0.53l1.26-0.09
					l1.17-0.4l1.21-0.24l1.24,0.04l1.22,0.15l1.18,0.32l1.22,0.16l1.1,0.55l1.12,0.47l1.09,0.56l1.05,0.64l0.81,0.94l0.87,0.85
					l0.92,0.83l0.61,1.07l0.57,1.08l0.69,1.01l0.35,1.18l0.45,1.13l0.44,1.14l0.31,1.19l0.12,1.22l0.01,0.09l0.24,1.15l0.13,1.17
					l0.07,1.18l-0.21,1.17l-0.15,1.16l-0.02,1.18l-0.25,1.15l-0.33,1.13l-0.44,1.09l-0.66,0.99l-0.52,1.05l-0.75,0.9l-0.72,0.92
					l-0.8,0.85l-0.79,0.87l-1.08,0.5l-0.96,0.65l-0.97,0.68l-1.09,0.45l-1.15,0.28l-1.17,0.18l-1.23,0.02l-1.22,0.09l-1.22-0.13
					l-1.23-0.04l-1.18-0.36l-1.16-0.41l-1.06-0.62l-1.13-0.5l-0.94-0.79l-1.02-0.7l-0.89-0.85l-0.58-1.11l-0.87-0.88l-0.51-1.12
					l-0.72-1l-0.25-1.22l-0.65-1.06l-0.18-1.22l-0.44-1.15L272.71,64.33z M293.83,61.1l0.19-0.12l-0.28-1.13l-0.44-1.08l-0.17-1.17
					l-0.47-1.07l-0.78-0.89l-0.63-0.95l-0.68-0.94l-0.84-0.81l-1.06-0.49l-1.05-0.5l-1.16-0.06l-1.15,0.02l-1.24,0.25l-1.13,0.58
					l-0.92,0.86l-0.79,0.97l-0.54,1.13l-0.35,1.19l-0.54,1.15l0.01,1.27l0.06,1.24l-0.02,1.25l0.07,1.25l-0.11,0.11l0.36,1.11
					l0.15,1.16l0.42,1.09l0.52,1.04l0.63,0.97l0.5,1.06l0.79,0.85l0.99,0.61l0.92,0.7l1.07,0.47l1.17,0.02l1.17,0.09l1.22-0.35
					l1.08-0.65l0.94-0.81l0.86-0.91l0.61-1.1l0.34-1.21l0.24-1.22l0.1-1.24l0.21-1.24l-0.02-1.26L293.83,61.1z"/>
			</g>
		</g>
	</g>
	<g>
		<g>
			<g>
				<path class="st0" d="M13.47,152.69l0.51-0.97l0.57-1.07l0.42-1.14l0.55-1.08l0.44-1.13l0.49-1.11l0.29-1.18l0.53-1.1l0.42-1.14
					l0.29-1.18l0.32-1.17l0.36-1.16l0.25-1.33l1.1,0.36l1.08,0.18l1.1,0.07l1.1,0.1l0.59,0.67l-0.18,0.57l-0.83,0.78l-0.44,1.13
					l-0.33,1.16l-0.19,1.21l-0.37,1.16l-0.48,1.12l-0.6,1.07l-0.43,1.13l-0.46,1.12l-0.33,1.18l-0.69,1.01l-0.48,1.1l-0.46,1.27
					l-1.05-0.52l-1.05-0.38l-1.04-0.4L13.47,152.69z M24.39,131.09l1-0.1l1.1-0.03l1.09-0.18l1.11-0.01l0.77,0.33l-0.3,0.52
					l-0.32,0.73l0.04,1.18l0.14,1.17l0.25,1.15l0.2,1.16l0.14,1.17l0.35,1.14l-0.01,1.19l0.17,1.16l0.28,1.15l0.25,1.16l-0.05,1.2
					l0.33,1.14l0.14,1.17l0.06,1.19l0.19,1.17L31.7,151l0.2,1.16l0.1,1.18l0,1.2l0.2,1.17l0.07,1.24L32,158.18l-1.1,0.65l-1.13,0.54
					l-1.16,0.59l-1.29,0.1l-1.22,0.2l-0.56-0.99l-0.76-0.88l-0.45-1.08l-0.67-0.91l1-0.1l1.1,0.12l1.09-0.12l0.8-0.62l0.22-0.87
					l-0.07-1.2l-0.11-1.2l-0.3-1.17l-0.08-1.2L27,148.89l-0.15-1.2l-0.11-1.2l-0.18-1.19l-0.25-1.17l-0.17-1.19l-0.25-1.18
					l-0.26-1.18l0.07-1.23l-0.34-1.17l-0.28-1.18l-0.12-1.2l-0.11-1.2l-0.06-1.21l-0.32-1.18L24.39,131.09z M41.64,150.69
					l-0.78-0.75l-0.81-0.88l-0.91-0.79l-0.77-0.92l-0.82-0.87l-0.74-0.94l-0.87-0.82l-0.63-1.02l-0.7-0.97l-0.77-0.92l-0.71-0.96
					l-0.64-1.01l-0.8-0.9l-0.49-1.06l1.16-0.74l1.11-0.84l1.16-0.83l0.65,1.21l0.83,0.93l0.7,1.02l0.65,1.06l0.78,0.96l0.93,0.83
					l0.82,0.91l0.77,0.96l0.72,1.02l0.89,0.86l0.9,0.84l1.03,0.71l0.76,0.8l-0.81,0.78l-0.71,0.97l-1,0.66L41.64,150.69z"/>
			</g>
			<g>
				<path class="st0" d="M63.88,132.65l1.34,0.08l1.26,0.12l0.72,0.25l-0.39,0.81l0.36,1.01l-0.1,1.06l0.29,0.99l1.25-0.05
					l1.23-0.29l1.25-0.14l1.21-0.41l1.27-0.04l1.23-0.31l1.2,0.02l0.4,1.05l0.12,1.19l-0.02,1.21l0.19,1.18l0.36,1.15l0.14,1.18
					l0.15,1.19l0.1,1.2l0.32,1.16l-0.08,1.18l-0.31,1.08l-0.63,0.98l-1.11,0.38l-1.11,0.36l-1.14,0.27l-1.07,0.13l-0.57-0.93
					l-0.64-0.94l-0.58-0.98l-0.5-1.01l1.12-0.18l1.17-0.02l0.84-0.41l0.26-0.88l-0.08-1.1l-0.25-1.08l-0.12-1.1l-0.17-1.1l-0.11-1.2
					l-1.25,0.3l-1.18,0.17l-1.2,0.06l-1.13,0.33l0.13,1.19l0.27,1.19l0.11,1.22l0.05,1.23l0.22,1.2l0.34,1.19l0.04,1.23l0.18,1.21
					l0.41,1.18l0.2,1.21l0.14,1.29l-1.16-0.01l-1.04,0.26l-1.07,0.08l-1.03,0.24l-0.19-1.19l-0.07-1.22l-0.45-1.17l-0.2-1.21
					l-0.02-1.23l-0.17-1.21l-0.35-1.19l0.06-1.25l-0.39-1.18l-0.07-1.23l-0.16-1.27l-1.12,0.24l-1.06,0.29l-1.12-0.08l-1.18,0.19
					l0.42,1.25l0.13,1.2l0.1,1.21l0.17,1.2l0.34,1.17l0.12,1.2l0.19,1.19l0.16,1.2l0.19,1.26l-1.43,0.04l-1.36,0.19l-1.33,0.34
					l-0.16-1.2l-0.34-1.17l-0.09-1.21l-0.28-1.18l0.07-1.24l-0.19-1.2l-0.24-1.19l-0.29-1.19l-0.02-1.26l-0.93,1.09l-0.86,1.01
					l-0.81,1.05l-0.99,1l-1-0.58l-0.94-0.63l-0.95-0.61l-1.03-0.46l0.89-0.75l0.79-0.87l0.85-0.81l0.87-0.8l0.73-0.92l0.75-0.91
					l0.56-1.04l0.68-0.97l0.34-1.14l0.51-1.06l0.5-0.97l-1.17-0.05l-1.14,0.37l-1.16,0.23l-1.18,0.06l-1.18,0.1l-1.09,0.18
					l-0.12-1.11l-0.42-1.15l-0.01-1.16l1.2-0.2l1.24-0.25l1.27-0.1l1.23-0.36l1.28-0.03l1.26-0.2l1.2-0.36l0.43-1.16l0.19-1.3
					l0.3-1.28l0.01-1.28l1.32-0.11l1.33,0.02l1.33,0.07l1.28,0.46l-0.4,0.3l-0.67,0.81l-0.21,0.95l-0.29,0.97l-0.22,0.89l1.14-0.18
					l1.16-0.15l1.15-0.22l1.18-0.03l1.14-0.3l1.18-0.04l1.14-0.3l1.15-0.24l1.18-0.05l1.17-0.1l1.13-0.35l1.17-0.1l1.18-0.07
					l1.21-0.33l0.02,1.27l0.21,1.18l0.2,1.14l-1.09,0.22l-1.15,0.15l-1.13,0.23l-1.16,0.09l-1.13,0.28l-1.16,0.09l-1.15,0.16
					l-1.15,0.16l-1.14,0.2l-1.13,0.29l-1.15,0.2L63.88,132.65z M62.44,132.78l-1.29,0.2l-1.27,0.13l-0.41,1.16l-0.35,1.07
					l-0.24,1.12l-0.7,0.92l-0.38,1.05l1.35-0.06l1.32-0.3l1.34-0.16l1.21-0.37l-0.07-1.1l-0.3-1.18l0.05-1.23L62.44,132.78z"/>
			</g>
			<g>
				<path class="st0" d="M112.36,147.26l-1.23,0.22l-1.25,0.1l-1.25,0.1l-1.24,0.19l-1.25,0.17l-1.23,0.26l-1.23,0.05l-1.21-0.19
					l-0.98-0.69l-0.84-0.91l-0.1-1.24l-0.27-1.16l-0.12-1.19l-0.14-1.19l-0.2-1.18l-0.34-1.16l-0.07-1.2l-0.16-1.32l-1.41,0.87
					l-0.32-1.14l-0.33-1.11L97,134.39l-0.17,1.28l0.39,1.2l-0.01,1.23l0,1.23l0.3,1.21l0.09,1.23l0.02,1.23l-0.21,1.23l0.23,1.23
					l-0.12,1.23l-0.45,1.22l-0.79,0.98l-0.85,1l-1.25,0.39l-1.38,0.35l-0.6-1.27l-0.75-1.13l-0.91-1.07l1.08-0.13l0.94,0.06
					l1.27-0.45l0.46-1.26l0.31-1.29l-0.13-1.17l-0.09-1.16l-0.09-1.16l0.11-1.17l-0.17-1.15l-0.16-1.15l-0.11-1.16l-0.15-1.22
					l-1.2,0.42l-1.29-0.09l-0.01,1.32l0.24,1.2l0.02,1.21l0.01,1.21l-0.19,1.21l-0.05,1.21l0.04,1.22l-0.26,1.19l-0.26,1.19
					l-0.33,1.16l-0.18,1.21l-0.45,1.13l-0.56,0.98l-1.17-0.35l-1.27-0.14l-1.13-0.54l0.52-1.05l0.32-1.19l0.39-1.15l0.43-1.15
					l0.24-1.2l0.06-1.22l0.16-1.21l0.29-1.21L88,138.9l-0.08-1.22l-0.07-1.22l-0.15-1.21l0.19-1.25l-0.42-1.19l-0.14-1.21
					l-0.15-1.22l-0.05-1.3l-1.07,0.27l-1.09,0.05l-1.01,0.16l-0.2-1.08l-0.18-1.15l-0.1-1.07l1.06-0.4l1.23,0.1l1.16-0.38l1.19-0.12
					l-0.22-1.14l0.03-1.19l-0.43-1.12l0.01-1.09l1.22-0.12l1.3-0.23l1.32,0.07l0.97,0.22l-0.23,0.46l-0.4,0.48l0.23,1.01l0.12,1.03
					l0,1.17l1.36-0.19l1.24-0.39l1.35-0.24l0.25,1.34l0.05,1.29l0.45-1.06l0.74-0.92l0.26-1.13l0.33-1.09l0.15-1.14l0.19-1.12
					l0.25-1.23l1.22,0.36l1.21,0.08l1.22-0.11l0.92,0.42l-0.42,0.29l-0.54,0.48l-0.41,1.43l1.2-0.06l1.17-0.32l1.18-0.24l1.2-0.12
					l1.22,0.01l1.18-0.27l1.21-0.12l1.19-0.26l1.19-0.22l0.12,1.08l0.16,1.08l0.16,1.03l-1.18,0.25l-1.23,0.19l-1.22,0.28
					l-1.27-0.09l-1.2,0.42l-1.24,0.13l-1.25,0.05l-1.21,0.31l-1.26,0.06l-1.17,0.43l-0.36,0.92L100,127.6l-0.56,0.91l0.93-0.08
					l0.95,0.11l0.91,0.19l-0.44,0.46l-0.22,0.48l0.12,1.08l0.14,1.1l0.96-0.62l1.13-0.31l-0.1-1.19l-0.17-1.14l-0.16-1.15
					l-0.22-1.05l0.94-0.11l1.02-0.31l1.05-0.07l1.1,0.3l-0.52,0.53l-0.48,0.57l0.19,1.09l0.27,1.03l0.98-0.37l0.9-0.64l1.09-0.25
					l0.93-0.7l0.92,0.56l0.97,0.21l0.25,1.17l0.27,1.18l-0.1,1.23l0.33,1.17l0.12,1.2l0.13,1.2l0.35,1.17l0.03,1.27l-0.73,1.01
					l-0.8,0.93l-1.08,0.63l-1.27,0.5l-0.62-0.87l-0.74-0.71l-0.51-0.76l-0.05,1l0.34,1.04l0.02,0.98l-0.93,0.12l-1.02,0.28
					l-1.13,0.27l-0.05-1.37l-0.2-1.26l-0.38-1.23l-0.02-1.29l-0.37-1.24l0.03-1.41l-1.04,0.71l-1.11,0.39l0.33,1.16l0.23,1.14
					l0.15,1.16l0.17,1.15l-0.03,1.18l0.22,1.15l0.21,1.15l0.78,1.04l1.31,0.26l1.09-0.2l1.1-0.15l1.08-0.31l1.13,0l1.1-0.17
					l1.06-0.53l0.62-1.02l-0.06-1.18l0.09-1.27l1.12,0.3l1.1,0.33l1.05,0.42l0.05,1.1l-0.12,1.16l-0.21,1.14l-0.62,0.96l-0.77,0.85
					l-1.08,0.42L112.36,147.26z M98.07,130.51l-0.72,1.17l-1.11-0.7l-1.07-0.69l-1.11-0.61l0.85-0.85l0.71-0.94l-1.24,0.15
					l-1.24,0.19l-1.26,0.1l-1.18,0.39l0.01,0.97l0.23,1.07l0.12,1.14l1.35-0.16l1.33-0.22l1.31-0.36l1.34-0.1l0.01,1.06l0.32,1.04
					l0.1,1.05l0.9-0.45l1.04-0.37l-0.18-1.53L98.07,130.51z M109.66,132.07l-1.05,0.6l-1.18,0.48l0.1,1.13l0.18,1.17l0.16,1.17
					l0.25,1.14l1.28-0.04l0.79-0.43l0.28-0.89l-0.39-1.08l0.05-1.15l-0.26-1.11L109.66,132.07z"/>
			</g>
			<g>
				<path class="st0" d="M161.28,140.3l-0.43-1.1l-0.75-0.84l-0.68-0.79l-1.16,0.08l-1.14,0.44l-1.15,0.42l-1.23,0.12l-1.16,0.36
					l-1.15,0.4l-1.17,0.33l-1.16,0.37l-1.21,0.2l-1.16,0.38l-1.2,0.22l-1.15,0.42l-1.2,0.2l-1.22,0.13l-1.13,0.49l-1.2,0.18
					l-1.21,0.13l-1.14,0.46l-1.33,0.64l-0.52,0.78l-0.59-0.86l-0.32-1.03l-0.52-0.97l-0.09-1.11l-0.44-1.01l1.26-0.24l1.25-0.09
					l1.2-0.41l1.26-0.04l1.19-0.33l0.82-0.97l0.81-1.01l0.78-1.04l0.85-0.96l-0.92-0.8l-0.77-1.01l-1.01-0.74l-1.09-0.63l-0.84-0.95
					l-1.02-0.72l-1.19-0.45l-0.98-0.79l-1.18-0.42l-0.89-0.63l0.69-0.77l0.72-0.82l0.51-1.01l0.89-0.63l1.06,0.71l1.21,0.64
					l1.18,0.67l0.59-0.93l0.63-0.94l0.64-0.94l0.57-0.98l0.55-1l0.3-1.04l-1.13,0.14l-1.16,0.08l-1.11,0.41l-1.15,0.12l-1.16,0.09
					l-1.14,0.24l-1.15,0.18l-1.18-0.03l-1.13,0.33l-1.16,0.14l-0.1-1.2l-0.18-1.18l-0.21-1.14l1.07-0.33l1.16,0.01l1.11-0.29
					l1.16-0.01l1.11-0.36l1.17,0.06l1.11-0.38l1.13-0.23l1.15-0.07l1.13-0.25l1.12-0.1l-0.22-1.34l-0.13-1.38l-0.17-1.32l1.08-0.06
					l1.14-0.15l1.15-0.13l1.12-0.36l0.9,0.52l-0.23,0.63l-0.49,0.56l0.03,1.2l0.27,1.25l1.28-0.43l1.27,0.04l1.23-0.27l1.25-0.1
					l1.22-0.33l1.26-0.04l1.2-0.45l1.24-0.16l1.28,0.07l1.15-0.2l0.32,1.06l0.12,1.19l0.24,1.22l-1.23,0.26l-1.23-0.03l-1.18,0.3
					l-1.21,0.08l-1.2,0.15l-1.17,0.39l-1.23-0.02l-1.18,0.31l-1.2,0.18l-1.2,0.18l0.62,0.52l-0.69,0.63l-0.93,0.54l-0.7,1.07
					l-0.6,1.14l-0.78,1.02l-0.75,1.04l-0.59,1.15l-0.92,0.93l-0.53,1.08l0.91,0.84l0.91,0.95l1.09,0.78l0.61-1.09l0.81-0.9
					l0.62-1.03l0.68-0.99l0.84-0.88l0.76-0.94l0.65-1.01l0.46-1.14l0.89-0.84l0.56-0.99l0.97,0.49l1.07,0.32l1.05,0.37l0.98,0.54
					l0.55,0.37l-0.97,0.5l-0.76,1.06l-0.72,1.03l-0.82,0.83l-0.63,0.97l-0.69,0.92l-0.74,0.89l-0.93,0.73l-0.64,0.97l-0.74,0.89
					l-0.59,1.02l-0.78,0.86l-0.82,0.82l-0.64,0.97l-0.72,0.91l-0.87,0.78l1.17-0.09l1.09-0.4l1.13-0.21l1.12-0.25l1.14-0.19
					l1.13-0.24l1.09-0.4l1.14-0.16l1.1-0.37l1.05-0.15l-0.72-0.74l-0.73-0.86l-0.83-0.76l-0.88-0.7L153,131l1.1-0.81l1.01-0.89
					l0.94-0.92l0.95,0.53l0.72,0.95l0.99,0.63l0.92,0.73l0.82,0.83l0.81,0.85l0.68,0.96l0.74,0.9l0.66,0.96l0.66,0.96l0.63,0.83
					l-0.67,0.86l-0.92,0.61l-0.92,0.61L161.28,140.3z"/>
			</g>
			<g>
				<path class="st0" d="M177.21,127.92l-0.26-0.69l-1.42,0.09l-1.42,0.29l0.17,0.95l-1.33-0.03l-1.21,0.3l-1.27,0.28l-0.02-1.29
					l-0.32-1.19l-0.24-1.2l-0.21-1.21l-0.12-1.21l-0.05-1.23l-0.39-1.18l-0.08-1.22l-0.23-1.2l-0.13-1.22l-0.2-1.21l-0.08-1.23
					l-0.29-1.19l-0.26-1.2l-0.16-1.22l-0.26-1.3l1.23-0.23l1.17-0.01l1.15-0.1l1.13-0.25l1.12-0.34l1.16-0.03l1.13-0.23l1.14-0.23
					l1.06,0.06l0.15,1.1l0.34,1.19l0.02,1.23l0.48,1.16l0.12,1.21l0.13,1.22l0.01,1.23l0.38,1.18l0.13,1.22l0.03,1.23l0.29,1.19
					l0.1,1.23l0.23,1.2l0.26,1.2l0.07,1.23l0.37,1.25l-1.29,0.16l-1.23,0.06L177.21,127.92z M177.26,131.12l-0.22,1.27l-0.59,1.07
					l-0.42,1.13l-0.51,1.09l-0.82,0.92l-0.52,1.07l-1.02-0.28l-0.92-0.56l-1.05-0.25l-1.03-0.35l0.68-1.03l0.7-0.94l0.71-0.95
					l0.34-1.14l0.56-1.03l0.33-1.12l0.29-1.11l1.26,0.34l1.24,0.46l1.3,0.25l0.7,0.49L177.26,131.12z M174.79,112.05l-1.52,0.46
					l-1.5,0.09l0.28,1.3l0.24,1.3l0.01,1.45l1.55-0.31l1.41-0.31l-0.02-1.28l-0.34-1.29L174.79,112.05z M175.93,119.49l-1.52,0.46
					l-1.5,0.09l0.28,1.33l0.24,1.33l0.02,1.47l1.56-0.31l1.41-0.3l-0.02-1.3l-0.34-1.31L175.93,119.49z M197.47,134.02l-0.7-0.77
					l-0.57-1.02l-0.79-0.84l-0.81-0.82l-0.65-0.99l-0.94-0.69l-0.99-0.72l0.88-0.62l0.63-0.84l0.68-0.76l-0.04-0.36l-1.12,0.11
					l-1.17,0.04l-1.12,0.38l-1.17,0.07l-1.14,0.22l-1.16,0.12l-1.15,0.19l0.07,0.88l-1.15,0.26l-1.22,0.26l-1.26,0.15l-0.31-1.27
					l-0.19-1.26l-0.03-1.28l-0.12-1.27l-0.27-1.25l-0.36-1.23l-0.05-1.29l-0.24-1.28l0.66-0.08l-0.61-0.74l-0.83-0.58l-0.91-0.47
					l1.15-0.29l0.87-0.8l0.92-0.65l0.79-0.82l0.76-0.89l0.19-1.16l0.17-1.11l-1.29,0.04l-1.25,0.3l-1.29,0.11l-1.21,0.25l-0.22-1.07
					l-0.06-1.16l-0.36-1.18l1.23-0.15l1.18-0.05l1.13-0.33l1.19,0.04l1.13-0.35l1.14-0.29l1.2,0.09l1.15-0.29l1.15-0.27l1.19,0.04
					l1.16-0.22l1.15-0.26l1.16-0.2l1.16-0.24l1.17-0.08l0.18,1.25l0,1.3l0.16,1.3l-0.12,1.3l-0.24,1.28l0.05,1.32l-0.41,1.12
					l-0.75,0.88l-0.88,0.79l-1.15,0.27l-1.14,0.27l-1.15,0.07l-0.57-1.09l-0.76-1.01l-0.35-1.2l1-0.05l1.08-0.14l1.01-0.39l0.2-1.09
					l0.35-1.07l-0.01-1.05l-1.09,0.16l-1.12,0.18l-1.12,0.2l-1.12,0.1l-0.08,1.24l-0.51,1.19l-0.34,1.22l-0.43,1.22l-0.81,0.74
					l-0.7,0.79l-0.63,0.89l-0.94,0.58l1.16-0.38l1.22,0.1l1.18-0.19l1.18-0.19l1.13-0.47l1.22,0.08l1.19-0.14l1.17-0.27l1.17-0.28
					l1.17-0.25l1.26-0.15l0.15,1.33l0.14,1.26l0.11,1.27l0.38,1.23l0.16,1.26l0.1,1.27l0.43,1.23l0.12,1.35l-1.25,0.14l-1.12,0.24
					l0.96,0.63l0.77,0.97l1,0.73l0.83,0.9l0.76,0.96l0.77,0.86l-0.84,0.67l-0.75,0.83l-0.98,0.54L197.47,134.02z M181.25,135.7
					l-0.4-1.12l-0.2-1.3l-0.52-1.21l-0.58-1.17l-0.45-1.08l1.07-0.5l1.12-0.52l1.19-0.23l0.58,0.87l0.58,1l0.53,1.04l0.41,1.09
					l0.29,1.13l0.51,1.15l-1.08,0.18l-1.01,0.31l-1.04,0.21L181.25,135.7z M193.37,119.42l-1.22,0.4l-1.17,0.03l-1.14,0.26
					l-1.14,0.21l-1.19-0.08l-1.14,0.29l-1.09,0.25l0.03,1.42l0.35,1.4l1.13-0.23l1.15-0.2l1.16-0.11l1.17-0.04l1.12-0.38l1.17-0.07
					l1.12-0.2l-0.17-1.42L193.37,119.42z M188.27,134.62l-0.44-1.1l-0.28-1.29l-0.59-1.17l-0.66-1.13l-0.54-1.03l1.01-0.56
					l1.06-0.58l1.15-0.29l0.66,0.79l0.65,0.94l0.58,0.98l0.45,1.05l0.33,1.09l0.56,1.09l-1.34,0.39l-1.28,0.52L188.27,134.62z"/>
			</g>
			<g>
				<path class="st0" d="M227.36,112.44l0.24,1.37l0.29,1.24l1.34-0.17l1.38-0.11l1.39-0.38l0.28,1.3l0.18,1.27l0.02,1.24
					l-1.32,0.21l-1.38,0.14l-1.46,0.24l0.21,1.35l0.2,1.25l0.39,1.22l-0.03,1.29l0.29,1.24l0.28,1.24l-0.21,1.21l-0.51,1.12
					l-1.04,0.68l-1.1,0.55l-1.16,0.41l-1.2,0.27l-1.53,0.05l-0.44-1l-0.75-0.89l-0.53-1.01l-0.4-1.06l0.97-0.21l1.05,0.05l1.01-0.27
					l0.96-0.36l0.2-1.04l-0.2-1.06l-0.13-1.08l-0.14-1.08l-0.24-1.06l-0.23-0.97l-1.08,0.14l-1.19,0.01l-1.14,0.35l-1.16,0.22
					l-1.21-0.07l-1.16,0.23l-1.18,0.12l-1.17,0.21l-1.14,0.39l-1.2,0l-1.18,0.1l-1.16,0.27l-1.17,0.17l-1.16,0.27l-1.18,0.14
					l-0.3-1.24l-0.21-1.26l-0.1-1.31l1.19-0.27l1.16-0.21l1.2,0.06l1.16-0.2l1.17-0.17l1.18-0.12l1.13-0.4l1.17-0.18l1.19-0.03
					l1.18-0.12l1.16-0.25l1.17-0.16l1.15-0.34l1.21,0.03l1.16-0.3l-0.19-1.29l-0.25-1.23l-1.14,0.19l-1.23-0.02l-1.15,0.47
					l-1.2,0.14l-1.19,0.22l-1.22,0.06l-1.19,0.22l-1.18,0.27l-1.24-0.09l-1.18,0.3l-1.21,0.09l-1.19,0.22l-1.17,0.35l-1.23-0.03
					l-1.19,0.25l-1.21,0.25l-0.13-1.23l-0.34-1.18l0.03-1.15l1.15-0.24l1.25-0.11l1.24-0.21l1.23-0.29l1.24-0.24l1.25-0.16l1.26-0.1
					l1.25-0.13l1.23-0.29l1.19-0.25l-0.11-1.19l-0.21-1.23l-1.12,0.32l-1.16,0.03l-1.13,0.24l-1.13,0.23l-1.15,0.11l-1.16,0.05
					l-1.13,0.23l-1.06,0.08l-0.3-1.06l-0.15-1.18l-0.07-1.11l1.05-0.18l1.13-0.23l1.14-0.14l1.11-0.34l1.17,0.07l1.11-0.34
					l1.15-0.12l1.23-0.12l-0.37-1.13l-0.08-1.09l-0.09-1.06l1.36,0.01l1.37-0.33l1.39-0.06l0.76,0.43l-0.22,0.38l-0.34,0.79
					l0.35,1.35l1.13-0.26l1.17,0l1.14-0.18l1.12-0.34l1.17,0.01l1.12-0.32l1.15-0.16l1.19-0.2l0.09,1.23l0.12,1.18l0.28,1.16
					l-1.14,0.2l-1.13,0.28l-1.14,0.19l-1.17-0.01l-1.13,0.25l-1.15,0.13l-1.16,0.07l-1.19,0.25l0.14,1.29l0.32,1.18l1.1-0.25
					l1.14-0.19l1.14-0.19l1.16-0.08l1.14-0.2l1.17,0.03l1.11-0.39l1.15-0.09l1.16-0.04l1.13-0.31l1.23-0.3l0.09,1.31l0.26,1.2
					l0.1,1.21l-1.15,0.04l-1.12,0.35l-1.16,0.08l-1.13,0.37L227.36,112.44z M215.48,129.77l-0.64-0.75l-0.89-0.68l-0.82-0.76
					l-0.83-0.77l-1.02-0.5l-0.96-0.57l-0.99-0.74l1.04-0.96l0.87-1.07l0.92-0.99l0.81,0.61l0.97,0.58l0.92,0.65l1.02,0.53l0.73,0.9
					l0.91,0.69l0.89,0.84l-1.03,0.98l-0.82,1.15L215.48,129.77z"/>
			</g>
		</g>
	</g>
</g>
</svg>
