<?xml version="1.0" encoding="utf-8"?>
<!-- Generator: Adobe Illustrator 26.5.0, SVG Export Plug-In . SVG Version: 6.00 Build 0)  -->
<svg version="1.1" id="レイヤー_1" xmlns="http://www.w3.org/2000/svg" xmlns:xlink="http://www.w3.org/1999/xlink" x="0px"
	 y="0px" viewBox="0 0 494.63 279.16" style="enable-background:new 0 0 494.63 279.16;" xml:space="preserve">
<style type="text/css">
	.st0{fill:#FFFFFF;}
</style>
<g>
	<polygon class="st0" points="59.72,91.92 57.37,92.09 55.2,92.4 53.03,92.71 50.84,92.96 48.66,93.26 46.5,93.65 44.32,93.9 
		42.1,93.89 39.92,94.22 37.77,94.73 35.61,95.17 33.42,95.36 31.19,95.3 29.06,95.95 26.85,96.06 24.74,96.85 22.47,96.52 
		20.35,97.24 18.19,97.66 15.99,97.85 13.82,98.21 11.59,98.21 9.39,98.35 7.23,98.82 5.07,99.34 2.83,99.51 2.78,97.32 2.45,95.21 
		2.06,93.1 1.98,90.96 1.35,88.88 1.04,86.76 0.65,84.65 0.67,82.48 0.29,80.37 0,78.26 2.12,77.76 4.34,77.76 6.47,77.1 
		8.67,76.97 10.87,76.86 13.01,76.27 15.22,76.26 17.42,76.13 19.56,75.54 21.74,75.22 23.95,75.16 26.14,74.95 28.27,74.27 
		30.45,73.99 32.64,73.75 34.85,73.63 36.97,72.91 39.16,72.75 41.39,72.76 43.57,72.47 45.71,71.86 47.91,71.71 50.14,71.73 
		52.25,70.93 54.52,71.15 56.63,70.61 56.77,72.7 56.92,74.84 57.2,76.96 57.78,79.04 58.16,81.15 58.26,83.3 58.43,85.43 
		59.12,87.51 59.18,89.67 	"/>
	<polygon class="st0" points="225.61,69.38 223.32,69.4 221.18,69.66 219.06,70.17 216.9,70.27 214.74,70.44 212.61,70.85 
		210.5,71.33 208.3,71.19 206.19,71.66 204.11,72.35 201.95,72.51 199.78,72.62 197.67,73.1 195.46,72.92 193.33,73.28 
		191.22,73.82 189.04,73.81 186.92,74.3 184.81,74.84 182.72,75.51 180.55,75.64 178.37,75.63 176.27,76.27 174.05,75.98 
		171.96,76.69 169.79,76.79 167.61,76.81 165.55,77.74 163.32,77.37 161.25,78.27 159.01,77.84 156.87,78.23 154.75,78.74 
		152.61,79.1 150.34,79.63 150.58,77.28 149.82,75.23 149.84,73.07 149.64,70.94 148.68,68.91 148.4,66.78 148.65,64.59 
		147.75,62.55 148.01,60.34 147.83,58.42 149.69,57.66 151.91,57.98 154.07,57.78 156.12,56.85 158.28,56.69 160.45,56.55 
		162.61,56.42 164.76,56.22 166.8,55.22 168.99,55.37 171.17,55.38 173.26,54.69 175.37,54.17 177.55,54.16 179.69,53.84 
		181.83,53.53 183.98,53.3 186.12,53.01 188.25,52.59 190.4,52.35 192.6,52.47 194.74,52.14 196.84,51.56 198.96,51.07 
		201.13,50.93 203.34,51.11 205.41,50.35 207.59,50.3 209.65,49.36 211.91,49.89 213.98,49.04 216.1,48.59 218.27,48.44 
		220.42,48.05 222.55,48.14 222.59,50.22 223.11,52.31 223.7,54.39 223.83,56.53 223.76,58.7 224.11,60.81 224.53,62.91 
		224.55,65.08 225.29,67.14 	"/>
	<polygon class="st0" points="36.25,133.51 33.94,133.62 31.56,133.81 29.45,134.26 28.62,132.4 28.67,130.17 28.32,127.98 
		28.44,125.74 27.48,123.64 27.77,121.36 27.22,119.21 26.61,117.06 26.4,114.87 26.19,112.67 26.03,110.46 25.82,108.26 
		25.48,106.07 25.12,103.89 24.68,101.72 24.18,99.56 24.64,97.27 23.9,95.13 23.17,93 23.36,90.74 23.46,88.49 22.43,86.4 
		22.09,84.21 21.85,82.01 21.81,79.78 21.46,77.59 21.44,75.37 20.54,73.25 20.22,71.06 20.78,68.75 20.01,66.62 19.91,64.39 
		19.49,62.21 19.33,59.99 19.21,58.1 21.19,57.36 23.58,57.2 25.77,57.09 26.2,59.04 26.72,61.21 26.38,63.48 26.83,65.65 
		27.86,67.74 27.38,70.04 28.36,72.14 27.92,74.42 28.77,76.53 28.73,78.77 29,80.96 29.51,83.12 29.62,85.34 29.8,87.54 
		30.21,89.72 30.7,91.88 30.56,94.13 31.04,96.3 31.75,98.44 31.91,100.65 32.02,102.87 32.52,105.03 32.33,107.29 32.7,109.48 
		33.25,111.64 33.24,113.87 33.75,116.03 34.3,118.2 34.99,120.34 35.12,122.55 35.11,124.79 35.76,126.94 35.46,129.22 
		36.19,131.37 	"/>
	<polygon class="st0" points="167.31,152.17 165.27,153.16 162.84,153 160.22,153.72 160.24,151.18 160.38,148.96 159.37,146.9 
		158.81,144.78 158.58,142.61 158.23,140.45 158.58,138.21 158.28,136.05 157.92,133.9 157.43,131.76 157.4,129.57 156.8,127.45 
		157.15,125.2 156.09,123.14 156.53,120.88 155.37,118.84 155.96,116.57 154.83,114.53 155.19,112.28 154.07,110.24 153.89,108.06 
		153.67,105.89 154.08,103.63 153.28,101.54 153.56,99.31 153.24,97.15 152.94,94.99 151.77,92.94 151.62,90.76 151.95,88.52 
		150.99,86.44 151.21,84.21 150.59,82.09 150.79,79.86 150.22,77.73 149.92,75.57 150.05,73.35 149.56,71.22 149.26,69.05 
		148.22,66.99 148.12,64.79 148.28,62.56 148.17,60.37 147.99,58.56 149.91,57.66 152.28,57.39 154.84,57.04 154.71,59.46 
		155.53,61.55 155.17,63.8 156.2,65.86 156.41,68.03 156.54,70.21 156.52,72.41 157.38,74.5 157.13,76.73 157.87,78.83 
		158.45,80.95 158.04,83.21 158.13,85.4 158.26,87.58 158.64,89.73 159.77,91.77 159.65,93.99 160,96.13 159.77,98.36 
		160.89,100.41 160.46,102.66 161.06,104.78 161.74,106.89 161.93,109.06 162.11,111.24 162.23,113.42 162.43,115.6 162.77,117.75 
		163.14,119.9 163.61,122.04 164.16,124.17 163.51,126.46 164.35,128.55 165.19,130.64 164.87,132.89 164.67,135.12 165.88,137.16 
		166.22,139.31 166.44,141.49 166.42,143.7 166.77,145.86 166.73,148.07 167.77,150.17 	"/>
	<polygon class="st0" points="66.97,146.86 64.8,146.89 62.64,147.28 60.49,147.8 58.34,148.3 56.11,148.21 53.93,148.44 
		51.81,149.17 49.57,149.04 47.44,149.66 45.24,149.81 43.09,150.3 40.93,150.73 38.69,150.64 36.51,150.95 34.33,151.19 
		32.18,151.78 29.95,151.72 27.82,152.35 25.59,152.3 23.44,152.75 21.27,153.16 19.12,153.71 16.88,153.62 14.72,154.08 12.48,154 
		10.15,154.82 10.28,152.4 9.92,150.27 9.57,148.14 9.19,146.01 8.61,143.91 8.56,141.73 8.11,139.61 8.22,137.6 10.19,137.25 
		12.32,136.63 14.52,136.47 16.75,136.59 18.85,135.72 21.02,135.4 23.21,135.22 25.42,135.09 27.58,134.67 29.8,134.68 
		31.91,133.92 34.13,133.9 36.27,133.33 38.5,133.33 40.71,133.29 42.84,132.57 45,132.12 47.18,131.86 49.35,131.53 51.59,131.62 
		53.77,131.31 55.95,130.98 58.11,130.57 60.32,130.43 62.49,129.95 64.52,129.98 65.15,131.87 65,134.06 65.81,136.13 
		65.58,138.35 66.37,140.42 66.27,142.62 67.05,144.7 	"/>
	<polygon class="st0" points="84.63,71.65 82.21,71.92 79.79,72.49 77.38,72.58 76.89,70.47 76.71,68.24 76.3,66.04 76.2,63.79 
		75.78,61.59 75.45,59.38 75.29,57.14 74.93,54.93 74.72,52.69 74.19,50.5 73.94,48.19 76.46,47.93 78.91,47.61 81.29,47.36 
		81.57,49.49 81.97,51.69 82.36,53.89 82.49,56.13 82.77,58.35 83.26,60.55 83.37,62.79 83.81,64.99 84.05,67.22 84.44,69.44 	"/>
	<polygon class="st0" points="181.21,206.93 179.53,207.2 177.63,207.43 175.75,207.87 175.73,205.66 175.33,203.52 174.78,201.39 
		174.62,199.21 174.26,197.06 174.12,194.87 173.56,192.75 173.38,190.57 173.33,188.37 172.9,186.22 172.35,184.1 172.37,181.89 
		172.24,179.7 171.6,177.59 171.28,175.42 171.11,173.25 170.59,171.11 170.39,168.93 170.28,166.74 169.64,164.61 169.75,162.39 
		169.17,160.14 171.2,159.97 173.09,159.66 174.86,159.61 175.21,161.63 175.81,163.75 175.89,165.94 176.07,168.12 176.28,170.29 
		177.03,172.39 176.83,174.62 177.59,176.72 177.64,178.92 178.17,181.05 178.05,183.27 178.59,185.4 178.94,187.56 178.95,189.76 
		179.37,191.91 179.48,194.1 180.22,196.2 180.45,198.38 180.55,200.57 180.81,202.74 180.9,204.93 	"/>
	<polygon class="st0" points="119.37,71.07 117.4,71.53 115.28,71.9 113.08,71.75 110.98,72.31 108.87,72.77 106.71,72.82 
		104.58,73.16 102.41,73.23 100.29,73.63 98.19,74.19 96.04,74.37 93.89,74.56 91.75,74.84 89.62,75.19 87.46,75.33 85.32,75.56 
		83.21,76.04 81.12,76.71 78.97,76.85 76.83,77.18 74.66,77.27 72.52,77.53 70.42,78.16 68.24,78.21 65.94,78.61 66.06,76.15 
		65.2,73.98 64.99,71.72 65.05,69.57 67.04,69.42 69.12,68.75 71.3,68.77 73.38,68.14 75.54,68.04 77.64,67.49 79.85,67.7 
		81.98,67.43 84.12,67.16 86.24,66.71 88.38,66.45 90.49,65.96 92.67,65.97 94.79,65.56 96.89,64.98 99.04,64.84 101.17,64.48 
		103.33,64.37 105.43,63.77 107.58,63.61 109.76,63.59 111.88,63.15 113.98,62.57 116.18,62.63 118.1,62.45 118.67,64.43 119,66.67 
		119.18,68.94 	"/>
	<polygon class="st0" points="121.84,88.38 119.69,88.46 117.62,89.22 115.44,89.13 113.28,89.28 111.15,89.53 109.04,90.05 
		106.94,90.57 104.77,90.63 102.64,90.97 100.5,91.23 98.34,91.34 96.27,92.13 94.1,92.19 91.97,92.52 89.8,92.56 87.66,92.86 
		85.55,93.26 83.43,93.73 81.28,93.95 79.11,93.97 77.01,94.6 74.82,94.48 72.76,95.37 70.6,95.58 68.44,95.61 67.95,93.42 
		67.58,91.19 67.26,88.94 67.09,86.58 69.34,86.39 71.45,85.95 73.63,85.95 75.74,85.48 77.88,85.26 79.96,84.64 82.12,84.48 
		84.26,84.21 86.44,84.24 88.54,83.7 90.67,83.33 92.86,83.49 94.96,82.92 97.08,82.46 99.25,82.41 101.38,82.07 103.54,82 
		105.67,81.6 107.77,81.04 109.92,80.86 112.08,80.67 114.22,80.39 116.35,80.04 118.52,79.9 120.48,79.61 120.88,81.66 
		121.57,83.86 121.71,86.13 	"/>
	<polygon class="st0" points="94.47,87.48 92.3,87.77 90.1,88.2 87.87,88.4 85.65,88.74 83.43,88.99 81.2,89.25 78.98,89.63 
		76.74,89.95 76.39,87.8 76.17,85.64 75.9,83.49 75.63,81.33 75.38,79.18 75.05,77.03 74.68,74.88 74.46,72.75 76.63,72.32 
		78.85,72.07 81.07,71.75 83.3,71.53 85.53,71.29 87.73,70.84 89.97,70.66 92.14,70.39 92.38,72.48 92.75,74.61 93.12,76.75 
		93.34,78.91 93.64,81.06 93.93,83.22 94.16,85.38 	"/>
	<polygon class="st0" points="107.68,85.74 105.47,86.09 103.23,86.26 101.01,86.59 98.83,86.9 98.44,84.81 98.24,82.65 
		97.87,80.51 97.55,78.36 97.33,76.2 97,74.06 96.71,71.9 96.51,69.78 98.67,69.35 100.89,69.05 103.13,68.88 105.31,68.59 
		105.59,70.69 106.01,72.82 106.19,74.98 106.52,77.13 106.77,79.28 107.02,81.44 107.39,83.59 	"/>
	<polygon class="st0" points="125.92,117.78 123.74,118.28 121.57,118.3 119.46,118.81 117.27,118.69 115.2,119.41 113.03,119.45 
		110.86,119.49 108.76,120.06 106.66,120.56 104.47,120.47 102.33,120.79 100.25,121.43 98.03,121.16 95.92,121.66 93.83,122.26 
		91.65,122.25 89.56,122.88 87.38,122.84 85.27,123.36 83.14,123.71 80.96,123.69 78.86,124.31 76.73,124.66 74.54,124.62 
		72.56,124.76 72.22,122.74 71.84,120.56 71.51,118.36 71.1,116.17 71,113.94 70.38,111.78 70.58,109.51 69.95,107.35 69.55,105.15 
		69.24,102.8 71.52,102.49 73.65,102.15 75.81,102.05 77.95,101.79 80.07,101.41 82.2,101.09 84.36,101 86.47,100.51 88.6,100.2 
		90.75,99.98 92.89,99.75 95,99.29 97.2,99.42 99.32,99.03 101.47,98.77 103.55,98.1 105.72,98.08 107.83,97.55 109.95,97.17 
		112.12,97.11 114.25,96.69 116.39,96.41 118.58,96.46 120.66,95.72 123,95.48 122.98,97.9 123.2,100.1 123.57,102.3 124.26,104.45 
		124.24,106.69 124.65,108.88 124.81,111.1 124.99,113.33 125.52,115.51 	"/>
	<polygon class="st0" points="97.06,162.08 94.6,162.05 92.36,162.72 90.05,162.81 87.75,163.03 85.53,163.45 84.99,161.34 
		84.81,159.13 84.29,156.96 84.25,154.73 84.19,152.5 83.87,150.3 83.24,148.15 83.27,145.91 82.52,143.77 82.42,141.54 
		82.21,139.33 81.72,137.15 81.59,134.93 81.16,132.75 81.01,130.53 80.57,128.35 80.55,126.11 80.12,123.93 79.65,121.74 
		79.41,119.53 79.16,117.32 78.76,115.12 78.48,112.79 80.9,112.57 83.19,112.37 85.47,112.01 87.76,111.66 90.01,111.39 
		90.55,113.52 90.69,115.73 91.05,117.92 91.49,120.1 91.54,122.33 92.05,124.5 91.96,126.75 92.66,128.89 92.73,131.13 
		92.79,133.36 93.35,135.52 93.85,137.7 93.79,139.95 94.12,142.14 94.75,144.29 94.52,146.57 95.01,148.74 95.6,150.9 
		95.62,153.15 96.24,155.3 96.23,157.55 96.74,159.73 	"/>
	<polygon class="st0" points="46.27,168.85 46.22,166.51 45.66,164.26 45.26,161.99 45.32,159.65 44.5,157.22 46.97,157.34 
		49.1,156.53 51.34,156.54 53.49,155.92 55.76,156.15 57.92,155.54 60.16,155.56 62.34,155.16 64.49,154.43 66.69,154.18 
		68.9,153.95 71.1,153.62 73.32,153.48 75.54,153.32 77.7,152.78 79.94,152.74 82.11,152.21 84.3,151.8 86.52,151.62 88.71,151.22 
		90.93,151.04 93.11,150.56 95.34,150.56 95.9,152.79 96.05,155.09 96.12,157.41 96.47,159.69 96.97,162.01 94.69,162.13 
		92.52,162.58 90.35,163.05 88.09,162.94 85.94,163.59 83.71,163.67 81.5,163.88 79.32,164.26 77.15,164.84 74.94,165.02 
		72.77,165.54 70.53,165.58 68.3,165.64 66.1,165.96 63.95,166.59 61.7,166.56 59.56,167.31 57.33,167.41 55.12,167.61 
		52.94,168.11 50.71,168.24 48.52,168.67 	"/>
	<polygon class="st0" points="123.44,158.36 121.37,158.41 119.38,159.04 117.34,159.28 115.25,159.22 113.2,159.45 111.36,159.82 
		111.11,157.79 110.67,155.6 110.2,153.41 109.78,151.23 110.01,148.95 109.43,146.77 109.01,144.58 108.54,142.4 108.31,140.18 
		108.41,137.91 107.7,135.76 107.81,133.49 107.28,131.31 107.18,129.07 106.46,126.92 106.55,124.66 106.35,122.43 105.93,120.24 
		105.25,118.08 105.08,115.84 104.91,113.62 104.55,111.41 104.32,109.18 104.09,107.02 106.06,106.79 108.11,106.6 110.14,106.27 
		112.15,105.78 114.23,105.77 116.34,105.19 116.61,107.5 116.75,109.73 117.1,111.93 117.48,114.12 117.49,116.37 118.05,118.54 
		118.45,120.74 118.36,123 119.26,125.13 118.98,127.42 119.82,129.55 119.8,131.81 120.44,133.97 120.19,136.26 120.81,138.43 
		120.78,140.68 121.19,142.88 121.94,145.03 122.19,147.25 122.41,149.47 122.74,151.68 122.88,153.92 123.04,156.16 	"/>
	<polygon class="st0" points="111.12,160.13 110.73,158.01 110.51,155.97 110.2,153.93 110.27,151.85 110,149.8 109.46,147.71 
		111.77,147.68 113.96,147.18 116.19,147.06 118.36,146.42 120.6,146.37 122.83,146.17 125.03,145.78 127.22,145.38 129.47,145.28 
		131.66,144.87 133.86,144.49 136.06,144.08 138.27,143.73 140.52,143.65 142.72,143.24 144.89,143.07 145.3,145.01 145.44,147.06 
		145.77,149.09 146.08,151.13 146.43,153.17 146.73,155.32 144.37,155.31 142.19,155.82 139.96,155.97 137.78,156.5 135.56,156.78 
		133.32,156.86 131.1,157.13 128.9,157.45 126.69,157.78 124.49,158.18 122.29,158.59 120.09,158.97 117.83,158.92 115.64,159.4 
		113.43,159.78 	"/>
	<polygon class="st0" points="131.06,133.17 133.19,132.91 135.24,132.74 137.28,132.44 139.31,132.11 141.35,131.79 143.33,131.67 
		143.76,133.72 144.03,135.87 144.2,138.03 144.53,140.17 144.95,142.3 145.18,144.46 145.42,146.62 145.86,148.74 146.13,150.9 
		146.43,153.05 146.5,155.15 144.58,155.54 142.54,155.8 140.48,155.97 138.46,156.34 136.42,156.7 134.28,156.99 133.99,154.75 
		133.67,152.6 133.61,150.43 133.32,148.28 132.84,146.16 132.75,143.99 132.33,141.85 132.15,139.69 131.64,137.57 131.51,135.39 	
		"/>
	<polygon class="st0" points="235.45,143.13 233.2,143.04 231.03,143.77 228.8,144.21 226.57,144.56 224.22,144.13 222.05,144.98 
		219.83,145.41 217.52,145.3 215.29,145.74 212.82,146.55 212.37,144.11 212.41,141.91 212.37,139.72 212.17,137.54 211.15,135.48 
		210.75,133.33 210.96,131.11 210.66,128.95 210.4,126.78 210.22,124.61 209.33,122.53 209.37,120.32 208.8,118.2 208.58,116.03 
		208.8,113.8 208.12,111.69 208.54,109.44 208.36,107.27 207.35,105.21 206.64,103.11 207.09,100.85 207.02,98.66 206.46,96.53 
		206.27,94.36 205.48,92.27 205.41,90.08 205.28,87.89 204.76,85.76 204.36,83.61 204,81.46 204.43,79.2 203.82,77.08 203.92,74.86 
		202.8,72.81 203.27,70.54 202.42,68.46 201.75,66.34 201.79,64.14 201.73,61.94 201.42,59.77 201.48,57.56 200.71,55.46 
		200.58,53.26 200.34,51.24 202.39,50.66 204.65,50.53 206.83,49.72 209.07,49.46 211.37,49.55 213.69,49.79 215.84,48.82 
		218.13,48.86 220.42,48.81 222.72,47.92 222.8,50.23 223.17,52.38 223.53,54.53 224.01,56.67 223.51,58.93 223.87,61.08 
		224.8,63.16 225.42,65.27 225.47,67.47 225.34,69.68 225.71,71.83 226.22,73.97 226.68,76.1 226.23,78.36 227.27,80.43 
		227.47,82.6 227.26,84.82 227.73,86.95 228.56,89.03 228.57,91.23 228.66,93.42 229.56,95.5 229.78,97.67 230.08,99.82 
		229.4,102.12 230.38,104.19 230.61,106.36 230.46,108.58 231.14,110.69 231.75,112.81 232.21,114.95 232.33,117.13 232.72,119.28 
		232.1,121.57 232.37,123.74 233.43,125.8 232.91,128.07 233.74,130.16 233.56,132.39 234.76,134.43 234.39,136.69 234.42,138.89 
		234.95,141.03 	"/>
	<polygon class="st0" points="192.85,112.13 190.92,112.82 188.74,113.41 186.41,112.89 184.28,113.94 181.98,113.72 179.63,114.34 
		179.55,111.96 178.73,109.85 179.17,107.58 178.62,105.43 178.42,103.24 178.09,101.07 177.38,98.95 177.78,96.67 177.41,94.5 
		177.06,92.33 176.85,90.15 176.42,87.99 175.49,85.91 175.76,83.66 174.88,81.56 174.92,79.33 175.03,77.1 174.18,75 174.24,72.77 
		174.02,70.58 173.61,68.42 172.86,66.3 172.57,64.12 172.55,61.9 172.14,59.74 172,57.53 171.34,55.4 171.08,53.21 170.97,51.01 
		171.19,48.76 170.88,46.58 170.21,44.45 169.83,42.28 169.27,40.13 169.09,37.93 168.91,35.73 169.17,33.46 168.46,31.25 
		170.71,30.64 172.95,30.48 175.22,30.49 177.42,29.98 179.71,30.14 181.69,29.78 181.72,31.75 182.23,33.89 182.59,36.06 
		182.69,38.27 183.61,40.36 184.12,42.51 183.64,44.79 184.2,46.94 184.17,49.16 184.84,51.29 185.25,53.45 185.59,55.61 
		185.24,57.87 186.01,59.98 186.41,62.15 186.35,64.37 186.76,66.54 187.56,68.64 187.85,70.82 187.85,73.04 187.93,75.25 
		188.14,77.44 189.07,79.53 189.46,81.7 189.32,83.94 189.62,86.12 189.89,88.31 190.09,90.51 190.9,92.62 190.91,94.83 
		191.44,96.98 191.67,99.17 191.52,101.42 192.16,103.55 191.83,105.82 192.03,108.02 192.96,110.14 	"/>
	<polygon class="st0" points="217.54,94.17 215.25,94.58 213,94.54 210.85,95.2 208.6,95.13 206.41,95.47 204.25,96.06 
		202.04,96.32 199.84,96.65 197.63,96.86 195.42,97.07 193.24,97.51 191.03,97.74 188.83,98.08 186.6,98.2 184.42,98.65 
		182.23,99.08 180.02,99.37 177.7,99.56 177.37,97.42 176.99,95.38 176.86,93.31 176.46,91.27 176.46,89.17 176.14,87.15 
		178.33,86.99 180.51,86.62 182.69,86.1 184.91,86.01 187.13,85.79 189.33,85.48 191.51,85.04 193.73,84.9 195.9,84.35 
		198.08,83.92 200.33,84.01 202.48,83.36 204.72,83.3 206.9,82.83 209.13,82.69 211.3,82.14 213.56,82.19 215.74,81.76 
		215.97,83.81 216.26,85.86 216.74,87.88 216.68,89.98 217,92.04 	"/>
	<polygon class="st0" points="330.73,47.08 328.19,47.24 326.03,47.76 323.85,48.13 321.53,47.51 319.39,48.13 317.17,48.2 
		314.98,48.57 312.87,49.44 310.64,49.47 308.53,50.32 306.22,49.8 304,49.87 301.81,50.16 299.75,51.41 297.43,50.8 295.3,51.51 
		293.07,51.49 290.87,51.63 288.67,51.89 286.54,52.63 284.35,52.97 282.24,53.85 280,53.76 277.86,54.45 275.55,53.88 273.42,54.6 
		271.24,55.05 269.03,55.15 266.81,55.27 264.71,56.26 262.4,55.74 260.26,56.44 258.04,56.55 255.81,56.61 253.71,57.55 
		251.4,57.03 249.32,58.16 247.09,58.22 244.87,58.32 242.71,58.93 240.48,58.96 238.31,59.56 235.88,59.83 235.63,57.48 
		235.91,55.27 235.61,53.15 235.33,51.03 234.8,48.93 234.11,46.86 234.33,44.66 234.06,42.53 233.12,40.15 235.69,40.29 
		237.81,39.49 240.02,39.35 242.31,39.79 244.37,38.49 246.62,38.65 248.83,38.49 250.98,37.88 253.14,37.39 255.35,37.2 
		257.56,37.01 259.72,36.48 261.92,36.25 264.14,36.2 266.35,36.06 268.57,35.95 270.68,35.11 272.91,35.11 275.02,34.28 
		277.3,34.59 279.45,34.01 281.71,34.22 283.9,33.96 286,32.94 288.17,32.53 290.48,33.03 292.55,31.88 294.86,32.46 297.04,32.06 
		299.14,31.06 301.35,30.86 303.53,30.47 305.76,30.39 307.98,30.32 310.13,29.67 312.35,29.55 314.52,29.13 316.78,29.27 
		318.93,28.61 321.08,28.01 323.29,27.73 325.52,27.63 327.94,27.41 328.6,29.7 328.53,31.87 329.11,33.95 328.73,36.17 
		329.11,38.28 329.1,40.45 329.57,42.55 330.37,44.6 	"/>
	<polygon class="st0" points="329.03,85.81 326.66,85.96 324.45,86.62 322.13,86.49 319.94,87.28 317.64,87.25 315.39,87.6 
		313.1,87.74 310.84,88.06 308.55,88.19 306.18,88.99 306.11,86.59 305.4,84.45 305.56,82.19 304.82,80.05 305.02,77.79 
		304.75,75.59 304.57,73.38 304.06,71.21 303.95,68.99 303.11,66.86 303.02,64.64 302.95,62.41 302.25,60.26 301.91,58.07 
		301.96,55.82 301.7,53.61 301.13,51.45 300.63,49.28 300.52,47.06 300.5,44.82 299.82,42.67 299.69,40.44 299.78,38.19 
		299.01,36.05 298.83,33.82 298.66,31.67 300.83,31.28 303.11,31.17 305.3,30.41 307.55,30.07 309.86,30.14 312.08,29.51 
		314.4,29.68 316.66,29.3 318.91,28.86 320.98,28.81 321.73,30.7 322.05,32.89 322.16,35.11 322.59,37.29 322.93,39.48 
		322.67,41.75 323.17,43.92 323.33,46.14 323.67,48.33 324.32,50.48 324.45,52.7 325.09,54.85 324.89,57.12 325.05,59.34 
		325.34,61.54 326.22,63.66 325.97,65.94 326.52,68.1 326.62,70.33 326.83,72.54 327.1,74.74 327.67,76.91 327.99,79.11 
		328.64,81.26 328.71,83.5 	"/>
	<polygon class="st0" points="288.14,135.74 285.89,135.73 283.7,136.21 281.54,136.9 279.26,136.69 277.04,136.99 274.9,137.91 
		272.65,137.82 272.73,135.65 272.39,133.51 271.8,131.41 271.15,129.32 271.21,127.13 271.26,124.95 270.81,122.83 270.26,120.73 
		269.83,118.6 269.61,116.45 269.45,114.29 269.25,112.14 268.8,110.02 268.88,107.82 268.42,105.7 267.87,103.59 268.08,101.38 
		267.46,99.28 267.12,97.14 267.15,94.95 266.67,92.83 266.24,90.7 266.29,88.51 265.39,86.45 265.7,84.22 265.26,82.1 
		264.72,79.98 264.41,77.84 263.91,75.72 264.23,73.48 263.27,71.42 263.16,69.08 265.55,69.04 267.71,68.32 269.97,68.31 
		272.22,68.3 274.41,67.83 276.62,67.44 278.67,67.35 278.79,69.3 279.53,71.38 279.61,73.56 280.24,75.65 280.65,77.77 
		280.74,79.94 280.79,82.11 281.5,84.19 281.27,86.4 282.14,88.47 282.02,90.67 282.37,92.8 282.45,94.97 282.77,97.11 
		282.84,99.29 283.78,101.34 283.67,103.54 284.47,105.62 284.2,107.84 285.02,109.91 284.72,112.14 284.98,114.29 285.13,116.45 
		285.67,118.56 285.74,120.74 286.67,122.8 286.72,124.98 286.74,127.16 287.5,129.25 287.85,131.39 287.73,133.6 	"/>
	<polygon class="st0" points="419.35,77.11 417.41,77.45 415.31,78.06 413.12,78.03 410.99,78.5 408.81,78.51 406.75,79.42 
		404.58,79.48 402.38,79.37 400.24,79.66 398.14,80.31 395.93,80.19 393.84,80.9 391.65,80.85 389.5,81.11 387.35,81.41 
		385.27,82.18 383.11,82.41 380.97,82.71 378.83,83.1 376.63,83.05 374.55,83.83 372.34,83.69 370.23,84.26 368.02,84.14 
		365.86,84.32 363.73,84.81 361.57,85 359.48,85.75 357.3,85.88 355.15,86.18 352.95,86.13 350.77,86.27 348.87,86.61 348.6,84.79 
		348.45,82.7 347.91,80.65 347.76,78.55 347.38,76.47 347.08,74.39 346.98,72.28 346.18,70.26 345.69,68.2 345.57,65.84 
		347.93,65.43 350.17,65.79 352.26,65.09 354.39,64.65 356.59,64.79 358.75,64.63 360.89,64.34 362.96,63.47 365.16,63.6 
		367.32,63.43 369.43,62.85 371.62,62.88 373.74,62.4 375.83,61.71 378.05,61.94 380.2,61.65 382.26,60.72 384.47,60.84 
		386.67,60.92 388.81,60.58 390.92,59.98 393.02,59.31 395.22,59.39 397.42,59.45 399.54,58.99 401.66,58.42 403.79,57.99 
		405.95,57.78 408.12,57.62 410.29,57.42 412.42,56.96 414.63,57.05 416.66,56.55 417.15,58.5 416.92,60.65 417.53,62.69 
		417.87,64.76 417.82,66.89 418.31,68.95 418.73,71.02 418.66,73.16 419.58,75.18 	"/>
	<polygon class="st0" points="479.55,117.98 476.86,117.27 474.93,118.85 472.64,117.86 470.54,118.25 468.43,118.5 466.38,119.23 
		464.24,119.34 462.15,119.79 460.05,120.17 457.98,120.77 455.89,121.32 453.69,121.03 451.69,121.21 450.66,119.26 451.19,116.97 
		450.68,114.83 451.09,112.56 450.62,110.41 450.15,108.25 449.87,106.07 448.81,104 448.68,101.8 448.74,99.57 448.03,97.45 
		448.34,95.2 447.93,93.03 447.42,90.88 446.91,88.73 446.18,86.62 447.01,84.29 446.86,82.09 445.93,80 445.81,77.8 445.11,75.67 
		444.63,73.52 444.35,71.34 444.3,69.13 444.09,66.94 443.8,64.76 443.16,62.63 443.04,60.43 443.46,58.16 442.67,56.06 
		442.12,53.91 441.58,51.76 441.97,49.5 441.91,47.29 441,45.19 440.77,43 440.05,40.88 439.88,38.69 440.57,36.37 439.41,34.31 
		439.94,32.02 439.62,29.84 439.55,27.63 438.08,25.6 437.84,23.41 438.17,21.15 437.16,19.07 437.08,16.86 437.16,14.62 
		437.49,12.35 436.15,10.31 436.42,8.05 436.58,5.79 436.07,4.01 437.68,2.95 439.84,3.04 441.92,2.48 444.03,2.23 446.17,2.18 
		448.25,1.61 450.48,2.23 452.57,1.74 454.64,1.13 456.85,1.52 458.82,0.17 460.96,0 462.94,0.18 463.66,2.11 463.95,4.28 
		463.76,6.52 464.05,8.7 465.16,10.76 464.9,13.02 465.57,15.14 465,17.44 465.55,19.58 466.38,21.69 466.13,23.93 466.73,26.07 
		466.55,28.31 467.87,30.35 467.79,32.58 467.42,34.85 467.71,37.03 468.61,39.12 468.21,41.39 469.21,43.48 468.95,45.73 
		469.18,47.92 469.49,50.09 470.58,52.16 470.77,54.36 471.09,56.53 471.54,58.68 471.27,60.93 472.37,63 471.95,65.27 
		472.72,67.38 472.32,69.66 472.44,71.86 473.06,73.99 473.19,76.19 474.25,78.27 474.27,80.48 474.57,82.66 474.31,84.92 
		474.34,87.13 474.62,89.32 475.14,91.47 475.22,93.68 475.94,95.8 476.01,98.02 476.46,100.17 476.79,102.35 476.78,104.57 
		477.94,106.64 478.58,108.78 478.72,110.98 479,113.17 478.24,115.55 	"/>
	<polygon class="st0" points="494.63,62.92 492.24,63.37 489.98,63.23 487.78,63.5 485.64,64.23 483.38,64.08 481.21,64.58 
		478.99,64.72 476.81,65.13 474.62,65.53 472.4,65.7 470.21,66.07 468.05,66.63 465.8,66.62 463.57,66.65 461.39,67.12 
		459.19,67.48 457,67.86 454.79,68.04 452.61,68.53 450.42,68.93 448.2,69.04 445.97,69.17 443.76,69.45 441.55,69.74 439.33,69.99 
		437.24,70.36 437.1,68.32 436.55,66.23 436.43,64.07 436.26,61.92 435.53,59.85 435.23,57.72 435.02,55.57 434.86,53.43 
		437.02,53.02 439.19,52.54 441.39,52.28 443.66,52.51 445.78,51.66 448.03,51.73 450.24,51.54 452.39,50.81 454.58,50.49 
		456.77,50.15 459.06,50.45 461.17,49.52 463.46,49.85 465.65,49.5 467.86,49.22 470.03,48.7 472.24,48.49 474.43,48.11 
		476.63,47.76 478.81,47.32 480.99,46.89 483.24,46.87 485.45,46.64 487.6,45.95 489.87,46.05 492.07,45.65 492.02,47.83 
		492.39,49.95 492.77,52.07 493.05,54.21 493.71,56.29 493.92,58.43 494.04,60.6 	"/>
	<polygon class="st0" points="102.52,271.26 100.51,270.17 99.18,268.33 97.57,266.87 95.43,266.1 94.04,264.35 92.1,263.32 
		90.5,261.83 88.87,260.4 86.74,259.62 84.99,258.34 83.64,256.54 81.98,255.16 80.09,254.07 78.59,252.47 76.86,251.17 
		74.89,250.19 73.13,248.92 71.52,247.44 69.78,246.15 67.97,244.95 66.24,243.64 64.36,242.54 62.82,240.98 60.97,239.82 
		59.48,238.2 57.69,236.96 56.06,235.52 54.16,234.44 52.59,232.92 50.91,231.53 49.17,230.24 47.03,229.45 45.76,227.54 
		44.12,226.1 42,225.3 40.49,223.7 38.89,222.21 37.07,221.01 35.1,220.03 33.61,218.38 31.73,217.26 29.92,216.05 28.43,214.4 
		26.34,213.55 24.56,212.29 23.08,210.62 21.2,209.35 22.25,207.38 23.72,205.85 25,204.16 26.18,202.4 27.74,200.99 29.52,202.14 
		31.13,203.61 32.72,205.1 34.73,206.03 36.51,207.27 37.86,209.08 40.04,209.8 41.42,211.57 42.97,213.1 45.08,213.91 46.74,215.3 
		48.61,216.4 49.97,218.19 51.99,219.11 53.31,220.94 55.08,222.19 57.01,223.24 58.81,224.46 60.38,225.98 62.47,226.81 
		64.22,228.09 65.58,229.89 67.28,231.23 69.37,232.07 70.72,233.88 72.62,234.97 74.21,236.46 76.03,237.65 77.85,238.85 
		79.47,240.31 81.25,241.55 83.21,242.57 84.68,244.24 86.18,245.84 88.06,246.97 89.83,248.22 91.63,249.45 93.26,250.89 
		95.15,251.99 96.97,253.2 98.54,254.72 100.13,256.23 101.85,257.57 103.57,258.9 105.27,260.28 107.04,261.56 108.58,262.76 
		107.65,264.41 106.19,265.95 104.77,267.53 103.99,269.59 	"/>
	<polygon class="st0" points="29.49,269.89 31.21,268.44 32.55,266.73 33.46,264.7 34.71,262.92 35.74,260.99 37.26,259.42 
		38.93,257.97 40.08,256.11 41.28,254.3 42.83,252.76 44.07,250.99 45.12,249.08 46.23,247.2 48.19,245.98 49.03,243.9 
		50.71,242.45 51.89,240.63 53.3,238.97 54.32,237.02 55.89,235.49 57.08,233.68 58.68,232.17 59.6,230.15 60.83,228.35 
		62.21,226.67 64.04,225.34 65.05,223.38 65.96,221.35 67.86,220.06 69.08,218.26 70.22,216.4 71.72,214.8 72.71,212.83 
		73.84,210.96 75.5,209.49 76.99,207.9 78.2,206.09 79.46,204.32 81.1,202.84 82.46,201.13 83.43,199.14 85.07,197.65 86.07,195.67 
		87.02,193.66 88.71,192.2 90.32,190.68 91.31,188.52 93.15,189.98 95.15,191.04 96.55,192.86 98.68,193.74 100.13,195.53 
		101.91,196.87 104.17,198.09 102.14,199.66 101.06,201.56 100.06,203.52 98.84,205.32 97.18,206.78 95.89,208.53 94.42,210.13 
		93.26,211.98 91.87,213.64 90.9,215.62 88.97,216.87 88.24,219.03 86.69,220.57 85.14,222.11 84.14,224.06 82.67,225.67 
		81.61,227.59 80.23,229.27 79.18,231.19 77.32,232.5 75.85,234.11 75.11,236.26 73.34,237.64 72.32,239.59 70.82,241.18 
		69.38,242.82 68.63,244.96 67.35,246.72 65.52,248.06 64.12,249.73 63.04,251.63 61.42,253.13 60.12,254.87 59.14,256.86 
		57.87,258.63 56.39,260.22 55.1,261.97 53.9,263.79 52.59,265.52 51.49,267.42 49.91,268.95 48.76,270.81 47.12,272.3 45.88,274.1 
		44.42,275.73 43.35,277.65 41.92,279.16 40.34,277.78 38.55,276.45 36.36,275.65 35.06,273.68 33.38,272.21 31.2,271.39 	"/>
	<polygon class="st0" points="197.2,188.48 194.73,188.56 192.54,188.66 190.4,189.16 188.28,189.83 186.02,189.49 183.88,189.99 
		181.75,190.6 179.57,190.83 177.34,190.65 175.25,191.54 173.09,191.89 170.91,192.05 168.68,191.83 166.57,192.59 164.35,192.56 
		162.18,192.84 159.98,192.89 157.86,193.53 155.64,193.47 153.56,194.46 151.37,194.63 149.23,195.16 146.97,194.82 144.8,195.11 
		142.59,195.14 140.44,195.61 138.36,196.57 136.14,196.57 133.9,196.33 131.8,197.18 129.66,197.69 127.4,197.32 125.31,198.33 
		123.07,198.09 120.88,198.34 118.7,198.67 116.48,199.22 115.99,197.11 116.15,195 115.26,193.03 115.56,190.9 115.35,188.83 
		115.22,186.75 114.4,184.77 114.38,182.73 116.45,182.17 118.69,182.38 120.76,181.37 123,181.55 125.11,180.79 127.32,180.79 
		129.46,180.32 131.63,180 133.9,180.45 136.07,180.19 138.11,178.98 140.37,179.34 142.5,178.82 144.74,179.01 146.91,178.74 
		149.02,177.96 151.17,177.58 153.3,176.96 155.5,176.9 157.73,177.05 159.88,176.55 162.03,176.12 164.24,176.12 166.4,175.74 
		168.53,175.13 170.67,174.6 172.96,175.09 175.05,174.22 177.28,174.37 179.44,173.92 181.62,173.74 183.75,173.08 185.97,173.1 
		188.12,172.66 190.35,172.72 192.47,171.95 194.81,171.59 195.12,173.82 194.76,175.95 195.42,177.96 196.18,179.95 195.75,182.1 
		196.15,184.14 196.64,186.17 	"/>
	<polygon class="st0" points="157.36,210.27 155.26,210.66 153.06,210.81 150.86,211.11 148.66,211.33 146.52,211.94 144.32,212.22 
		142.08,212.19 139.95,212.92 137.69,212.77 135.4,213.47 135.3,211.14 135.11,208.97 134.73,206.82 134.48,204.65 133.92,202.53 
		133.59,200.37 133.69,198.15 133.13,196.02 132.7,193.88 132.66,191.68 132.19,189.54 132.12,187.34 131.61,185.21 131.48,183.03 
		131.05,180.88 130.85,178.7 130.78,176.51 130.43,174.35 129.84,172.22 129.87,170.01 129.46,167.85 129.16,165.76 131.22,165.11 
		133.41,164.87 135.61,164.66 137.85,164.73 140.04,164.4 142.19,163.8 144.37,163.39 146.6,163.34 148.81,163.13 151.13,162.53 
		151.3,164.87 151.48,167.05 151.89,169.19 152.41,171.32 152.33,173.54 152.74,175.68 153.22,177.82 153.48,179.99 153.49,182.19 
		154.14,184.31 154.46,186.47 154.68,188.65 154.67,190.85 155.24,192.97 155.34,195.17 155.62,197.33 155.77,199.52 156.27,201.66 
		156.35,203.85 157.06,205.96 157.28,208.15 	"/>
	<polygon class="st0" points="201.97,225.03 199.73,225.42 197.53,225.47 195.41,226.18 193.23,226.41 191.09,226.9 188.84,226.61 
		186.72,227.24 184.48,227.08 182.37,227.75 180.16,227.73 178.05,228.43 175.82,228.25 173.65,228.56 171.51,229.06 169.35,229.42 
		167.23,230.1 164.95,229.54 162.82,230.09 160.61,230.16 158.45,230.52 156.38,231.58 154.21,231.9 152.04,232.2 149.86,232.43 
		147.6,232.06 145.45,232.55 143.28,232.86 141.09,233.05 138.88,233.05 136.73,233.53 134.58,233.99 132.46,234.7 130.24,234.66 
		128.11,235.31 125.92,235.52 123.76,235.93 121.43,235.99 121.41,233.84 120.99,231.88 120.75,229.88 120.65,227.87 120.32,226.03 
		122.37,225.79 124.54,225.53 126.7,225.18 128.89,225.01 130.98,224.12 133.25,224.57 135.37,223.92 137.5,223.28 139.66,222.94 
		141.81,222.51 144.08,223.02 146.22,222.56 148.36,222.05 150.56,221.99 152.74,221.7 154.92,221.54 157.02,220.71 159.19,220.45 
		161.44,220.7 163.51,219.69 165.78,220.14 167.86,219.11 170.09,219.26 172.29,219.14 174.44,218.69 176.62,218.48 178.74,217.73 
		180.9,217.38 183.16,217.74 185.27,216.99 187.42,216.47 189.65,216.61 191.79,216.01 194.01,216.1 196.14,215.44 198.36,215.42 
		200.6,214.91 200.77,217 200.66,219.04 201.02,221.02 201.79,222.94 	"/>
	<polygon class="st0" points="127.05,278.09 126.96,275.72 126.34,273.6 126.08,271.43 125.78,269.28 125.77,267.08 125.24,264.94 
		125.14,262.75 125.12,260.55 124.45,258.44 124.39,256.24 123.73,254.13 123.46,251.96 123.63,249.73 122.94,247.61 122.71,245.44 
		122.66,243.25 121.94,241.13 122.18,238.9 121.5,236.78 121.59,234.56 120.83,232.46 120.54,230.29 120.31,228.1 120.43,226.08 
		122.2,225.89 124.11,225.11 126.1,224.85 128.09,224.54 130.28,224.36 130.2,226.75 130.4,228.93 130.83,231.07 131.22,233.22 
		131.84,235.33 131.78,237.54 132.29,239.68 132.22,241.89 132.83,244.01 133.16,246.17 133.29,248.36 133.86,250.49 134.11,252.66 
		134.53,254.81 134.45,257.03 134.96,259.16 134.96,261.37 135.49,263.5 135.59,265.7 136.15,267.83 136.13,270.04 136.44,272.21 
		136.86,274.37 137.19,276.56 135.22,277.09 133.16,276.81 131.19,277.25 129.17,277.37 	"/>
	<polygon class="st0" points="207.38,266.84 205.33,267.47 203.02,267.41 200.81,268.08 198.5,268.09 196.22,268.29 194.03,269.14 
		191.75,269.41 189.42,269.24 187.2,269.91 184.93,270.22 182.54,270.5 182.36,268.21 181.76,266.09 181.89,263.87 181.52,261.72 
		181.42,259.53 180.75,257.42 180.55,255.24 179.99,253.11 180.08,250.9 179.76,248.73 179.67,246.54 179.14,244.41 178.93,242.23 
		178.53,240.08 178.34,237.9 177.64,235.79 177.67,233.58 177.29,231.43 176.9,229.27 176.5,227.12 176.67,224.89 175.89,222.78 
		176.07,220.54 175.69,218.48 177.84,218 180.13,217.88 182.39,217.56 184.6,216.88 186.94,217.09 189.18,216.6 191.42,216.07 
		193.73,216.08 195.98,215.65 198.27,215.41 200.42,215.16 200.97,217.15 201.38,219.3 201.38,221.5 202,223.62 202.26,225.79 
		202.56,227.95 202.57,230.15 203.09,232.28 203.19,234.47 203.22,236.68 203.89,238.79 203.95,240.99 204.61,243.11 204.88,245.28 
		204.71,247.5 205.4,249.61 205.62,251.79 205.68,253.99 206.39,256.1 206.16,258.34 206.84,260.45 206.74,262.68 207.51,264.8 	"/>
	<polygon class="st0" points="205.21,248.8 202.88,248.63 200.7,248.84 198.65,250.02 196.46,250.23 194.28,250.41 192.09,250.55 
		189.87,250.49 187.78,251.4 185.62,251.74 183.38,251.48 181.26,252.11 179.08,252.34 176.97,252.99 174.71,252.64 172.61,253.46 
		170.42,253.65 168.22,253.68 166.1,254.29 163.92,254.6 161.7,254.52 159.56,255.01 157.35,255 155.16,255.23 153.01,255.67 
		150.85,256.02 148.64,256.1 146.47,256.44 144.39,257.37 142.21,257.58 139.94,257.21 137.85,258.07 135.67,258.35 133.49,258.65 
		131.25,258.46 129.07,258.76 126.93,259.31 124.54,259.89 124.54,257.5 123.96,255.44 123.95,253.31 123.95,251.18 123.75,249.06 
		122.68,246.74 125.27,247.19 127.41,246.66 129.51,245.87 131.71,245.77 133.87,245.42 136.08,245.4 138.17,244.53 140.34,244.27 
		142.59,244.54 144.74,244.13 146.86,243.55 149.03,243.26 151.28,243.58 153.36,242.64 155.61,242.91 157.71,242.06 159.94,242.22 
		162.13,242.09 164.18,240.96 166.36,240.72 168.64,241.18 170.73,240.32 172.9,240.01 175.08,239.72 177.29,239.7 179.4,238.93 
		181.66,239.28 183.82,238.87 186.03,238.89 188.12,238.01 190.31,237.85 192.43,237.14 194.69,237.44 196.86,237.1 199.08,237.12 
		201.22,236.47 203.29,236.26 203.67,238.22 203.79,240.34 204.7,242.35 204.48,244.51 204.9,246.6 	"/>
	<polygon class="st0" points="162.84,273.26 160.67,273.3 158.75,273.48 156.89,274.17 154.79,274.29 154.57,271.98 154.44,269.79 
		154.15,267.63 153.83,265.47 153.28,263.35 153.07,261.17 153.1,258.96 152.68,256.82 152.57,254.63 151.95,252.5 151.95,250.3 
		151.44,248.16 150.82,246.04 150.55,243.87 150.22,241.71 150.23,239.51 150.2,237.3 149.4,235.21 149.66,232.97 149.19,230.82 
		148.72,228.68 148.25,226.53 148.28,224.31 147.88,222.15 149.83,222.13 151.68,221.41 153.65,221.54 155.38,221.3 155.96,223.25 
		155.93,225.46 156.25,227.62 156.8,229.75 156.76,231.95 157,234.13 157.87,236.21 158.1,238.38 158.33,240.56 158.52,242.74 
		158.58,244.93 159.28,247.05 159.6,249.21 159.54,251.42 160.04,253.56 160.3,255.73 160.82,257.86 160.7,260.08 161.33,262.21 
		161.56,264.38 161.68,266.57 162.18,268.72 162.48,270.88 	"/>
	<polygon class="st0" points="207.66,267.06 205.4,267.27 203.25,267.64 201.03,267.59 198.84,267.74 196.76,268.73 194.59,268.99 
		192.37,268.93 190.17,269.04 188.07,269.85 185.85,269.75 183.77,270.64 181.6,270.88 179.33,270.42 177.28,271.57 175,271.1 
		172.83,271.37 170.75,272.3 168.57,272.51 166.41,272.96 164.25,273.32 162.01,273.12 159.84,273.36 157.64,273.51 155.52,274.17 
		153.32,274.26 151.15,274.57 148.92,274.48 146.85,275.52 144.6,275.26 142.49,275.98 140.33,276.4 138.11,276.36 135.96,276.82 
		133.72,276.66 131.62,277.56 129.4,277.57 127.16,277.97 126.82,275.76 126.86,273.57 125.99,271.51 126.04,269.31 125.4,266.88 
		127.94,266.88 130.09,266.43 132.32,266.63 134.49,266.28 136.65,265.93 138.76,265.17 140.93,264.9 143.19,265.27 145.25,264.15 
		147.4,263.76 149.65,264.12 151.73,263.17 153.97,263.41 156.16,263.25 158.24,262.29 160.43,262.13 162.62,262.05 164.83,262.02 
		167,261.72 169.17,261.39 171.28,260.7 173.47,260.53 175.71,260.74 177.86,260.24 180.07,260.23 182.18,259.43 184.41,259.6 
		186.54,258.96 188.64,258.16 190.82,257.91 192.99,257.56 195.22,257.74 197.46,257.84 199.53,256.77 201.82,257.33 203.97,256.76 
		206.16,256.21 206.76,258.36 206.55,260.57 206.99,262.7 206.91,264.9 	"/>
	<polygon class="st0" points="273.72,258.04 271.77,258.92 269.48,259.47 267.07,259.11 264.83,260.03 262.51,260.38 260.33,259.9 
		259.78,258.02 259.76,255.81 259,253.7 259.06,251.47 258.4,249.35 258.42,247.13 258.58,244.9 257.83,242.78 256.94,240.69 
		256.76,238.5 256.67,236.3 256.15,234.15 256.78,231.85 256.54,229.67 255.98,227.53 256.01,225.31 255.09,223.22 255.46,220.95 
		254.59,218.86 254.68,216.63 254.58,214.42 253.56,212.35 253.35,210.17 252.53,208.07 253.11,205.78 252.44,203.66 251.75,201.54 
		252.48,199.22 251.22,197.18 250.7,195.03 250.58,192.83 250.55,190.62 249.94,188.49 249.52,186.33 250.24,184.01 249.16,181.94 
		249.39,179.69 249.43,177.47 248.53,175.37 247.99,173.22 248.05,171 248.2,168.76 247.7,166.61 246.67,164.53 246.68,162.31 
		246.11,160.17 245.94,157.97 245.59,155.79 246.24,153.47 245.7,151.63 247.71,151.19 250.04,151.02 252.25,149.9 254.64,150.04 
		256.99,149.97 259.33,149.43 260.13,151.58 260.35,153.76 260.74,155.92 260.11,158.23 261.01,160.32 261.26,162.5 260.89,164.76 
		261.53,166.89 262.1,169.02 262.75,171.15 263.16,173.31 262.98,175.55 263.1,177.75 263.5,179.91 263.33,182.15 263.42,184.35 
		264.66,186.4 264.91,188.58 264.72,190.82 264.77,193.03 265.76,195.11 265.52,197.36 266.63,199.42 266.85,201.6 266.12,203.91 
		267.57,205.92 266.83,208.24 267.1,210.42 268.25,212.48 268.44,214.67 268.95,216.81 269.32,218.98 268.95,221.25 269.18,223.43 
		269.27,225.64 270.07,227.75 270.08,229.96 270.4,232.14 270.17,234.39 271.47,236.43 271.02,238.71 271.89,240.81 272.35,242.97 
		272.19,245.21 272.72,247.36 272.4,249.62 273.51,251.69 273.42,253.93 273.89,256.1 	"/>
	<polygon class="st0" points="302.58,173.55 300.85,174.35 298.72,174.8 296.45,174.33 294.37,175.2 292.25,175.8 289.97,175.18 
		287.81,175.46 285.71,176.15 283.59,176.73 281.42,177 279.2,176.79 277.14,177.79 274.96,177.94 272.72,177.69 270.67,178.74 
		268.4,178.19 266.3,178.92 264.17,179.37 261.93,179.02 259.81,179.62 257.61,179.59 255.44,179.83 253.3,180.22 251.2,180.95 
		248.96,180.67 246.92,181.88 244.67,181.47 242.51,181.74 240.43,182.68 238.23,182.65 236.12,183.35 233.87,183.02 231.67,183.01 
		229.59,183.95 227.35,183.64 225.2,183.99 223.06,184.45 220.93,185 218.77,185.34 216.55,185.25 214.41,185.75 212.32,186.65 
		209.98,186.59 209.92,184.24 209.98,182 209.31,179.86 208.91,177.68 208.7,175.46 208.26,173.25 210.4,172.56 212.56,172.33 
		214.75,172.21 216.87,171.61 219.07,171.64 221.29,171.85 223.44,171.45 225.57,170.98 227.69,170.39 229.82,169.89 231.97,169.52 
		234.2,169.71 236.35,169.41 238.57,169.53 240.73,169.24 242.8,168.34 244.93,167.84 247.16,168.13 249.24,167.32 251.4,166.99 
		253.66,167.43 255.77,166.8 257.96,166.75 260.06,166.05 262.27,166.07 264.39,165.46 266.58,165.44 268.79,165.53 270.9,164.85 
		273,164.04 275.17,163.85 277.36,163.74 279.5,163.25 281.77,163.74 283.93,163.5 286.06,162.98 288.26,162.96 290.35,162.14 
		292.6,162.41 294.69,161.62 296.91,161.66 299.1,161.54 301.23,160.64 301.49,162.88 302.23,165.01 301.78,167.3 302.41,169.45 
		303.04,171.64 	"/>
	<polygon class="st0" points="242.64,262.43 240.6,262.96 238.39,263.12 236.23,263.66 234.03,263.95 231.8,263.94 229.58,264.11 
		227.38,264.39 225.2,264.84 223.05,265.5 220.93,265.34 220.56,263.36 220.35,261.2 220.18,259.03 219.4,256.94 219.43,254.74 
		219.05,252.6 218.96,250.42 218.69,248.26 218.38,246.11 218.13,243.95 217.91,241.78 217.58,239.63 216.91,237.52 216.75,235.35 
		216.22,233.22 216.42,231 215.76,228.89 215.52,226.72 215.22,224.57 214.69,222.44 214.86,220.22 214.67,218.05 214.08,215.93 
		214.04,213.73 213.64,211.58 213.46,209.4 212.65,207.07 215.06,206.63 217.31,206.84 219.51,206.53 221.7,206.23 223.91,206 
		226.06,205.33 228.23,204.86 230.49,204.97 232.69,204.69 234.82,204.38 235.41,206.41 235.52,208.58 235.5,210.78 236.17,212.88 
		236.03,215.1 236.76,217.19 237.16,219.33 236.97,221.55 237.62,223.66 238.11,225.79 237.83,228.02 238.11,230.18 238.65,232.3 
		239.12,234.43 239.4,236.59 239.38,238.79 240.12,240.89 240.32,243.06 240.27,245.26 241.04,247.36 240.8,249.59 241.37,251.71 
		241.77,253.86 241.65,256.07 242.14,258.21 242.23,260.4 	"/>
	<polygon class="st0" points="312.63,253.26 310.19,253.34 307.98,253.82 305.71,253.8 303.54,254.54 301.23,254.36 299.09,254.82 
		298.57,252.79 298.5,250.61 298.4,248.43 297.53,246.35 297.74,244.13 297.04,242.03 296.86,239.86 296.89,237.66 296.68,235.49 
		296.09,233.38 296.12,231.18 295.32,229.09 295.16,226.92 294.6,224.8 294.66,222.59 294.15,220.46 294.27,218.24 294.05,216.08 
		293.43,213.97 292.9,211.84 293.04,209.62 292.88,207.45 292.59,205.28 291.75,203.2 291.77,200.99 291.73,198.79 291.34,196.83 
		293.32,196.07 295.6,196.1 297.8,195.6 300.02,195.21 302.26,194.89 304.66,194.67 304.89,196.99 305.02,199.16 305.5,201.29 
		305.43,203.49 305.81,205.63 306.41,207.75 306.57,209.92 307.09,212.04 307.38,214.2 307.37,216.4 307.54,218.57 307.8,220.73 
		308.25,222.87 308.9,224.97 308.7,227.2 309.16,229.33 309.37,231.5 309.54,233.68 310.32,235.77 310.3,237.97 310.67,240.12 
		310.76,242.3 311.04,244.47 311.35,246.62 311.6,248.79 311.82,250.98 	"/>
	<polygon class="st0" points="306.82,210.85 304.53,211.22 302.37,211.68 300.11,211.37 297.9,211.42 295.72,211.74 293.64,212.77 
		291.46,213 289.3,213.51 287.02,213.07 284.95,214.17 282.67,213.72 280.47,213.85 278.35,214.59 276.21,215.2 274.04,215.53 
		271.8,215.34 269.65,215.86 267.44,215.88 265.33,216.7 263.08,216.49 261,217.49 258.76,217.36 256.6,217.78 254.37,217.73 
		252.24,218.43 249.96,217.97 247.91,219.22 245.69,219.23 243.45,219.12 241.26,219.38 239.07,219.6 236.98,220.65 234.67,219.98 
		232.53,220.59 230.44,221.57 228.22,221.54 225.99,221.51 223.79,221.74 221.67,222.52 219.49,222.89 217.28,223.06 215.07,223.17 
		214.84,220.89 214.07,218.69 213.85,216.4 213.91,214.09 213.09,211.88 213.09,209.56 212.48,206.96 215.13,207.33 217.23,206.38 
		219.51,206.84 221.69,206.52 223.8,205.75 225.98,205.43 228.23,205.72 230.4,205.28 232.54,204.7 234.72,204.41 236.95,204.5 
		239.03,203.43 241.23,203.28 243.41,203.01 245.56,202.53 247.77,202.5 249.9,201.84 252.14,202.05 254.28,201.47 256.54,201.69 
		258.62,200.69 260.9,201.16 263.05,200.65 265.17,199.92 267.4,199.97 269.62,199.97 271.68,198.78 273.97,199.26 276.07,198.33 
		278.28,198.22 280.53,198.42 282.73,198.25 284.85,197.49 287.1,197.7 289.18,196.61 291.39,196.52 293.51,195.8 295.78,196.06 
		297.92,195.43 300.19,195.78 302.4,195.6 304.58,194.79 305.29,197.05 304.91,199.41 305.01,201.71 305.31,203.98 306.48,206.14 
		306.3,208.48 	"/>
</g>
</svg>
